<?xml version="1.0" encoding="UTF-8" standalone="no"?><svg xmlns="http://www.w3.org/2000/svg" xmlns:xlink="http://www.w3.org/1999/xlink" contentScriptType="application/ecmascript" contentStyleType="text/css" height="197px" preserveAspectRatio="none" style="width:739px;height:197px;" version="1.1" viewBox="0 0 739 197" width="739px" zoomAndPan="magnify"><defs><filter height="300%" id="f8l1nga" width="300%" x="-1" y="-1"><feGaussianBlur result="blurOut" stdDeviation="2.0"/><feColorMatrix in="blurOut" result="blurOut2" type="matrix" values="0 0 0 0 0 0 0 0 0 0 0 0 0 0 0 0 0 0 .4 0"/><feOffset dx="4.0" dy="4.0" in="blurOut2" result="blurOut3"/><feBlend in="SourceGraphic" in2="blurOut3" mode="normal"/></filter></defs><g><rect fill="#FFFFFF" filter="url(#f8l1nga)" height="102.3984" style="stroke: #A80036; stroke-width: 1.0;" width="10" x="44" y="48.2969"/><rect fill="#FFFFFF" filter="url(#f8l1nga)" height="81.3984" style="stroke: #A80036; stroke-width: 1.0;" width="10" x="246" y="69.2969"/><rect fill="#FFFFFF" filter="url(#f8l1nga)" height="14.1328" style="stroke: #A80036; stroke-width: 1.0;" width="10" x="515" y="98.4297"/><line style="stroke: #A80036; stroke-width: 1.0; stroke-dasharray: 5.0,5.0;" x1="49" x2="49" y1="38.2969" y2="159.6953"/><line style="stroke: #A80036; stroke-width: 1.0; stroke-dasharray: 5.0,5.0;" x1="251" x2="251" y1="38.2969" y2="159.6953"/><line style="stroke: #A80036; stroke-width: 1.0; stroke-dasharray: 5.0,5.0;" x1="520" x2="520" y1="38.2969" y2="159.6953"/><line style="stroke: #A80036; stroke-width: 1.0; stroke-dasharray: 5.0,5.0;" x1="653" x2="653" y1="38.2969" y2="159.6953"/><rect fill="#FEFECE" filter="url(#f8l1nga)" height="30.2969" style="stroke: #A80036; stroke-width: 1.5;" width="78" x="8" y="3"/><text fill="#000000" font-family="sans-serif" font-size="14" lengthAdjust="spacingAndGlyphs" textLength="64" x="15" y="22.9951">clientApp</text><rect fill="#FEFECE" filter="url(#f8l1nga)" height="30.2969" style="stroke: #A80036; stroke-width: 1.5;" width="78" x="8" y="158.6953"/><text fill="#000000" font-family="sans-serif" font-size="14" lengthAdjust="spacingAndGlyphs" textLength="64" x="15" y="178.6904">clientApp</text><rect fill="#FEFECE" filter="url(#f8l1nga)" height="30.2969" style="stroke: #A80036; stroke-width: 1.5;" width="112" x="193" y="3"/><text fill="#000000" font-family="sans-serif" font-size="14" lengthAdjust="spacingAndGlyphs" textLength="98" x="200" y="22.9951">userController</text><rect fill="#FEFECE" filter="url(#f8l1nga)" height="30.2969" style="stroke: #A80036; stroke-width: 1.5;" width="112" x="193" y="158.6953"/><text fill="#000000" font-family="sans-serif" font-size="14" lengthAdjust="spacingAndGlyphs" textLength="98" x="200" y="178.6904">userController</text><rect fill="#FEFECE" filter="url(#f8l1nga)" height="30.2969" style="stroke: #A80036; stroke-width: 1.5;" width="80" x="478" y="3"/><text fill="#000000" font-family="sans-serif" font-size="14" lengthAdjust="spacingAndGlyphs" textLength="66" x="485" y="22.9951">Database</text><rect fill="#FEFECE" filter="url(#f8l1nga)" height="30.2969" style="stroke: #A80036; stroke-width: 1.5;" width="80" x="478" y="158.6953"/><text fill="#000000" font-family="sans-serif" font-size="14" lengthAdjust="spacingAndGlyphs" textLength="66" x="485" y="178.6904">Database</text><rect fill="#FEFECE" filter="url(#f8l1nga)" height="30.2969" style="stroke: #A80036; stroke-width: 1.5;" width="158" x="572" y="3"/><text fill="#000000" font-family="sans-serif" font-size="14" lengthAdjust="spacingAndGlyphs" textLength="144" x="579" y="22.9951">reservationController</text><rect fill="#FEFECE" filter="url(#f8l1nga)" height="30.2969" style="stroke: #A80036; stroke-width: 1.5;" width="158" x="572" y="158.6953"/><text fill="#000000" font-family="sans-serif" font-size="14" lengthAdjust="spacingAndGlyphs" textLength="144" x="579" y="178.6904">reservationController</text><rect fill="#FFFFFF" filter="url(#f8l1nga)" height="102.3984" style="stroke: #A80036; stroke-width: 1.0;" width="10" x="44" y="48.2969"/><rect fill="#FFFFFF" filter="url(#f8l1nga)" height="81.3984" style="stroke: #A80036; stroke-width: 1.0;" width="10" x="246" y="69.2969"/><rect fill="#FFFFFF" filter="url(#f8l1nga)" height="14.1328" style="stroke: #A80036; stroke-width: 1.0;" width="10" x="515" y="98.4297"/><polygon fill="#A80036" points="234,65.2969,244,69.2969,234,73.2969,238,69.2969" style="stroke: #A80036; stroke-width: 1.0;"/><line style="stroke: #A80036; stroke-width: 1.0;" x1="54" x2="240" y1="69.2969" y2="69.2969"/><text fill="#000000" font-family="sans-serif" font-size="13" lengthAdjust="spacingAndGlyphs" textLength="173" x="61" y="64.3638">login(username, password)</text><polygon fill="#A80036" points="503,94.4297,513,98.4297,503,102.4297,507,98.4297" style="stroke: #A80036; stroke-width: 1.0;"/><line style="stroke: #A80036; stroke-width: 1.0;" x1="256" x2="509" y1="98.4297" y2="98.4297"/><text fill="#000000" font-family="sans-serif" font-size="13" lengthAdjust="spacingAndGlyphs" textLength="240" x="263" y="93.4966">retrieve(username, password) : Client</text><polygon fill="#A80036" points="267,108.5625,257,112.5625,267,116.5625,263,112.5625" style="stroke: #A80036; stroke-width: 1.0;"/><line style="stroke: #A80036; stroke-width: 1.0;" x1="261" x2="519" y1="112.5625" y2="112.5625"/><polygon fill="#A80036" points="641,137.5625,651,141.5625,641,145.5625,645,141.5625" style="stroke: #A80036; stroke-width: 1.0;"/><line style="stroke: #A80036; stroke-width: 1.0;" x1="256" x2="647" y1="141.5625" y2="141.5625"/><text fill="#000000" font-family="sans-serif" font-size="13" lengthAdjust="spacingAndGlyphs" textLength="107" x="263" y="136.6294">subscribe(Client)</text></g></svg>