<?xml version="1.0" encoding="UTF-8" standalone="no"?><svg xmlns="http://www.w3.org/2000/svg" xmlns:xlink="http://www.w3.org/1999/xlink" contentScriptType="application/ecmascript" contentStyleType="text/css" height="463px" preserveAspectRatio="none" style="width:1102px;height:463px;" version="1.1" viewBox="0 0 1102 463" width="1102px" zoomAndPan="magnify"><defs><filter height="300%" id="fux9be6" width="300%" x="-1" y="-1"><feGaussianBlur result="blurOut" stdDeviation="2.0"/><feColorMatrix in="blurOut" result="blurOut2" type="matrix" values="0 0 0 0 0 0 0 0 0 0 0 0 0 0 0 0 0 0 .4 0"/><feOffset dx="4.0" dy="4.0" in="blurOut2" result="blurOut3"/><feBlend in="SourceGraphic" in2="blurOut3" mode="normal"/></filter></defs><g><rect fill="#FFFFFF" filter="url(#fux9be6)" height="112.3984" style="stroke: #A80036; stroke-width: 1.0;" width="10" x="90.5" y="69.2969"/><rect fill="#FFFFFF" filter="url(#fux9be6)" height="189.7969" style="stroke: #A80036; stroke-width: 1.0;" width="10" x="90.5" y="210.8281"/><rect fill="#FFFFFF" filter="url(#fux9be6)" height="53.2656" style="stroke: #A80036; stroke-width: 1.0;" width="10" x="319.5" y="69.2969"/><rect fill="#FFFFFF" filter="url(#fux9be6)" height="31.1328" style="stroke: #A80036; stroke-width: 1.0;" width="10" x="319.5" y="210.8281"/><rect fill="#FFFFFF" filter="url(#fux9be6)" height="59.1328" style="stroke: #A80036; stroke-width: 1.0;" width="10" x="476" y="151.6953"/><rect fill="#FFFFFF" filter="url(#fux9be6)" height="129.5313" style="stroke: #A80036; stroke-width: 1.0;" width="10" x="476" y="271.0938"/><rect fill="#FFFFFF" filter="url(#fux9be6)" height="57.2656" style="stroke: #A80036; stroke-width: 1.0;" width="10" x="816" y="300.2266"/><rect fill="#FFFFFF" filter="url(#fux9be6)" height="14.1328" style="stroke: #A80036; stroke-width: 1.0;" width="10" x="1036" y="329.3594"/><rect fill="#FFFFFF" filter="url(#fux9be6)" height="324.1953" style="stroke: #000000; stroke-width: 2.0;" width="1080" x="13" y="84.4297"/><rect fill="#FFFFFF" height="189.6641" style="stroke: none; stroke-width: 1.0;" width="1080" x="13" y="218.9609"/><line style="stroke: #A80036; stroke-width: 1.0; stroke-dasharray: 5.0,5.0;" x1="95" x2="95" y1="38.2969" y2="425.625"/><line style="stroke: #A80036; stroke-width: 1.0; stroke-dasharray: 5.0,5.0;" x1="324" x2="324" y1="38.2969" y2="425.625"/><line style="stroke: #A80036; stroke-width: 1.0; stroke-dasharray: 5.0,5.0;" x1="481" x2="481" y1="38.2969" y2="425.625"/><line style="stroke: #A80036; stroke-width: 1.0; stroke-dasharray: 5.0,5.0;" x1="709" x2="709" y1="38.2969" y2="425.625"/><line style="stroke: #A80036; stroke-width: 1.0; stroke-dasharray: 5.0,5.0;" x1="821" x2="821" y1="38.2969" y2="425.625"/><line style="stroke: #A80036; stroke-width: 1.0; stroke-dasharray: 5.0,5.0;" x1="1041" x2="1041" y1="38.2969" y2="425.625"/><rect fill="#FEFECE" filter="url(#fux9be6)" height="30.2969" style="stroke: #A80036; stroke-width: 1.5;" width="141" x="23" y="3"/><text fill="#000000" font-family="sans-serif" font-size="14" lengthAdjust="spacingAndGlyphs" textLength="127" x="30" y="22.9951">paymentController</text><rect fill="#FEFECE" filter="url(#fux9be6)" height="30.2969" style="stroke: #A80036; stroke-width: 1.5;" width="141" x="23" y="424.625"/><text fill="#000000" font-family="sans-serif" font-size="14" lengthAdjust="spacingAndGlyphs" textLength="127" x="30" y="444.6201">paymentController</text><rect fill="#FEFECE" filter="url(#fux9be6)" height="30.2969" style="stroke: #A80036; stroke-width: 1.5;" width="127" x="259" y="3"/><text fill="#000000" font-family="sans-serif" font-size="14" lengthAdjust="spacingAndGlyphs" textLength="113" x="266" y="22.9951">paymentHandler</text><rect fill="#FEFECE" filter="url(#fux9be6)" height="30.2969" style="stroke: #A80036; stroke-width: 1.5;" width="127" x="259" y="424.625"/><text fill="#000000" font-family="sans-serif" font-size="14" lengthAdjust="spacingAndGlyphs" textLength="113" x="266" y="444.6201">paymentHandler</text><rect fill="#FEFECE" filter="url(#fux9be6)" height="30.2969" style="stroke: #A80036; stroke-width: 1.5;" width="158" x="400" y="3"/><text fill="#000000" font-family="sans-serif" font-size="14" lengthAdjust="spacingAndGlyphs" textLength="144" x="407" y="22.9951">reservationController</text><rect fill="#FEFECE" filter="url(#fux9be6)" height="30.2969" style="stroke: #A80036; stroke-width: 1.5;" width="158" x="400" y="424.625"/><text fill="#000000" font-family="sans-serif" font-size="14" lengthAdjust="spacingAndGlyphs" textLength="144" x="407" y="444.6201">reservationController</text><rect fill="#FEFECE" filter="url(#fux9be6)" height="30.2969" style="stroke: #A80036; stroke-width: 1.5;" width="78" x="668" y="3"/><text fill="#000000" font-family="sans-serif" font-size="14" lengthAdjust="spacingAndGlyphs" textLength="64" x="675" y="22.9951">clientApp</text><rect fill="#FEFECE" filter="url(#fux9be6)" height="30.2969" style="stroke: #A80036; stroke-width: 1.5;" width="78" x="668" y="424.625"/><text fill="#000000" font-family="sans-serif" font-size="14" lengthAdjust="spacingAndGlyphs" textLength="64" x="675" y="444.6201">clientApp</text><rect fill="#FEFECE" filter="url(#fux9be6)" height="30.2969" style="stroke: #A80036; stroke-width: 1.5;" width="118" x="760" y="3"/><text fill="#000000" font-family="sans-serif" font-size="14" lengthAdjust="spacingAndGlyphs" textLength="104" x="767" y="22.9951">clientController</text><rect fill="#FEFECE" filter="url(#fux9be6)" height="30.2969" style="stroke: #A80036; stroke-width: 1.5;" width="118" x="760" y="424.625"/><text fill="#000000" font-family="sans-serif" font-size="14" lengthAdjust="spacingAndGlyphs" textLength="104" x="767" y="444.6201">clientController</text><rect fill="#FEFECE" filter="url(#fux9be6)" height="30.2969" style="stroke: #A80036; stroke-width: 1.5;" width="80" x="999" y="3"/><text fill="#000000" font-family="sans-serif" font-size="14" lengthAdjust="spacingAndGlyphs" textLength="66" x="1006" y="22.9951">Database</text><rect fill="#FEFECE" filter="url(#fux9be6)" height="30.2969" style="stroke: #A80036; stroke-width: 1.5;" width="80" x="999" y="424.625"/><text fill="#000000" font-family="sans-serif" font-size="14" lengthAdjust="spacingAndGlyphs" textLength="66" x="1006" y="444.6201">Database</text><rect fill="#FFFFFF" filter="url(#fux9be6)" height="112.3984" style="stroke: #A80036; stroke-width: 1.0;" width="10" x="90.5" y="69.2969"/><rect fill="#FFFFFF" filter="url(#fux9be6)" height="189.7969" style="stroke: #A80036; stroke-width: 1.0;" width="10" x="90.5" y="210.8281"/><rect fill="#FFFFFF" filter="url(#fux9be6)" height="53.2656" style="stroke: #A80036; stroke-width: 1.0;" width="10" x="319.5" y="69.2969"/><rect fill="#FFFFFF" filter="url(#fux9be6)" height="31.1328" style="stroke: #A80036; stroke-width: 1.0;" width="10" x="319.5" y="210.8281"/><rect fill="#FFFFFF" filter="url(#fux9be6)" height="59.1328" style="stroke: #A80036; stroke-width: 1.0;" width="10" x="476" y="151.6953"/><rect fill="#FFFFFF" filter="url(#fux9be6)" height="129.5313" style="stroke: #A80036; stroke-width: 1.0;" width="10" x="476" y="271.0938"/><rect fill="#FFFFFF" filter="url(#fux9be6)" height="57.2656" style="stroke: #A80036; stroke-width: 1.0;" width="10" x="816" y="300.2266"/><rect fill="#FFFFFF" filter="url(#fux9be6)" height="14.1328" style="stroke: #A80036; stroke-width: 1.0;" width="10" x="1036" y="329.3594"/><polygon fill="#A80036" points="307.5,65.2969,317.5,69.2969,307.5,73.2969,311.5,69.2969" style="stroke: #A80036; stroke-width: 1.0;"/><line style="stroke: #A80036; stroke-width: 1.0;" x1="100.5" x2="313.5" y1="69.2969" y2="69.2969"/><text fill="#000000" font-family="sans-serif" font-size="13" lengthAdjust="spacingAndGlyphs" textLength="134" x="107.5" y="64.3638">submit(paymentInfo)</text><rect fill="none" height="324.1953" style="stroke: #000000; stroke-width: 2.0;" width="1080" x="13" y="84.4297"/><polygon fill="#EEEEEE" points="13,84.4297,77,84.4297,77,91.4297,67,101.4297,13,101.4297,13,84.4297" style="stroke: #000000; stroke-width: 2.0;"/><text fill="#000000" font-family="sans-serif" font-size="13" font-weight="bold" lengthAdjust="spacingAndGlyphs" textLength="19" x="28" y="97.4966">alt</text><text fill="#000000" font-family="sans-serif" font-size="11" font-weight="bold" lengthAdjust="spacingAndGlyphs" textLength="128" x="92" y="96.6401">[payment accepted]</text><polygon fill="#A80036" points="111.5,118.5625,101.5,122.5625,111.5,126.5625,107.5,122.5625" style="stroke: #A80036; stroke-width: 1.0;"/><line style="stroke: #A80036; stroke-width: 1.0;" x1="105.5" x2="323.5" y1="122.5625" y2="122.5625"/><text fill="#000000" font-family="sans-serif" font-size="13" lengthAdjust="spacingAndGlyphs" textLength="190" x="117.5" y="117.6294">acceptPayment(paymentInfo)</text><polygon fill="#A80036" points="464,147.6953,474,151.6953,464,155.6953,468,151.6953" style="stroke: #A80036; stroke-width: 1.0;"/><line style="stroke: #A80036; stroke-width: 1.0;" x1="100.5" x2="470" y1="151.6953" y2="151.6953"/><text fill="#000000" font-family="sans-serif" font-size="13" lengthAdjust="spacingAndGlyphs" textLength="195" x="107.5" y="146.7622">confirmPayment(paymentInfo)</text><polygon fill="#A80036" points="697,206.8281,707,210.8281,697,214.8281,701,210.8281" style="stroke: #A80036; stroke-width: 1.0;"/><line style="stroke: #A80036; stroke-width: 1.0;" x1="481" x2="703" y1="210.8281" y2="210.8281"/><text fill="#000000" font-family="sans-serif" font-size="13" lengthAdjust="spacingAndGlyphs" textLength="199" x="488" y="205.895">notifyCorrectPayment(amount)</text><line style="stroke: #000000; stroke-width: 1.0; stroke-dasharray: 2.0,2.0;" x1="13" x2="1093" y1="219.9609" y2="219.9609"/><polygon fill="#A80036" points="111.5,237.9609,101.5,241.9609,111.5,245.9609,107.5,241.9609" style="stroke: #A80036; stroke-width: 1.0;"/><line style="stroke: #A80036; stroke-width: 1.0;" x1="105.5" x2="323.5" y1="241.9609" y2="241.9609"/><text fill="#000000" font-family="sans-serif" font-size="13" lengthAdjust="spacingAndGlyphs" textLength="195" x="117.5" y="237.0278">refusedPayment(paymentInfo)</text><polygon fill="#A80036" points="464,267.0938,474,271.0938,464,275.0938,468,271.0938" style="stroke: #A80036; stroke-width: 1.0;"/><line style="stroke: #A80036; stroke-width: 1.0;" x1="100.5" x2="470" y1="271.0938" y2="271.0938"/><text fill="#000000" font-family="sans-serif" font-size="13" lengthAdjust="spacingAndGlyphs" textLength="195" x="107.5" y="266.1606">refusedPayment(paymentInfo)</text><polygon fill="#A80036" points="804,296.2266,814,300.2266,804,304.2266,808,300.2266" style="stroke: #A80036; stroke-width: 1.0;"/><line style="stroke: #A80036; stroke-width: 1.0;" x1="486" x2="810" y1="300.2266" y2="300.2266"/><text fill="#000000" font-family="sans-serif" font-size="13" lengthAdjust="spacingAndGlyphs" textLength="179" x="493" y="295.2935">addDebt(myClient, amount)</text><polygon fill="#A80036" points="1024,325.3594,1034,329.3594,1024,333.3594,1028,329.3594" style="stroke: #A80036; stroke-width: 1.0;"/><line style="stroke: #A80036; stroke-width: 1.0;" x1="826" x2="1030" y1="329.3594" y2="329.3594"/><text fill="#000000" font-family="sans-serif" font-size="13" lengthAdjust="spacingAndGlyphs" textLength="191" x="833" y="324.4263">insertDebt(myClient, amount)</text><polygon fill="#A80036" points="837,339.4922,827,343.4922,837,347.4922,833,343.4922" style="stroke: #A80036; stroke-width: 1.0;"/><line style="stroke: #A80036; stroke-width: 1.0;" x1="831" x2="1040" y1="343.4922" y2="343.4922"/><polygon fill="#A80036" points="497,353.4922,487,357.4922,497,361.4922,493,357.4922" style="stroke: #A80036; stroke-width: 1.0;"/><line style="stroke: #A80036; stroke-width: 1.0;" x1="491" x2="820" y1="357.4922" y2="357.4922"/><polygon fill="#A80036" points="697,382.4922,707,386.4922,697,390.4922,701,386.4922" style="stroke: #A80036; stroke-width: 1.0;"/><line style="stroke: #A80036; stroke-width: 1.0;" x1="486" x2="703" y1="386.4922" y2="386.4922"/><text fill="#000000" font-family="sans-serif" font-size="13" lengthAdjust="spacingAndGlyphs" textLength="126" x="493" y="381.5591">notifyDebt(amount)</text><polygon fill="#A80036" points="106.5,396.625,96.5,400.625,106.5,404.625,102.5,400.625" style="stroke: #A80036; stroke-width: 1.0;"/><line style="stroke: #A80036; stroke-width: 1.0;" x1="100.5" x2="480" y1="400.625" y2="400.625"/></g></svg>