<?xml version="1.0" encoding="UTF-8" standalone="no"?><svg xmlns="http://www.w3.org/2000/svg" xmlns:xlink="http://www.w3.org/1999/xlink" contentScriptType="application/ecmascript" contentStyleType="text/css" height="1586px" preserveAspectRatio="none" style="width:1493px;height:1586px;" version="1.1" viewBox="0 0 1493 1586" width="1493px" zoomAndPan="magnify"><defs><filter height="300%" id="ffi5ggk" width="300%" x="-1" y="-1"><feGaussianBlur result="blurOut" stdDeviation="2.0"/><feColorMatrix in="blurOut" result="blurOut2" type="matrix" values="0 0 0 0 0 0 0 0 0 0 0 0 0 0 0 0 0 0 .4 0"/><feOffset dx="4.0" dy="4.0" in="blurOut2" result="blurOut3"/><feBlend in="SourceGraphic" in2="blurOut3" mode="normal"/></filter></defs><g><rect fill="#FFFFFF" filter="url(#ffi5ggk)" height="14.1328" style="stroke: #A80036; stroke-width: 1.0;" width="10" x="59" y="165.6953"/><rect fill="#FFFFFF" filter="url(#ffi5ggk)" height="380.3281" style="stroke: #A80036; stroke-width: 1.0;" width="10" x="287" y="93.4297"/><rect fill="#FFFFFF" filter="url(#ffi5ggk)" height="71.2656" style="stroke: #A80036; stroke-width: 1.0;" width="10" x="287" y="596.9609"/><rect fill="#FFFFFF" filter="url(#ffi5ggk)" height="14.1328" style="stroke: #A80036; stroke-width: 1.0;" width="10" x="287" y="762.625"/><rect fill="#FFFFFF" filter="url(#ffi5ggk)" height="134.5313" style="stroke: #A80036; stroke-width: 1.0;" width="10" x="287" y="837.8906"/><rect fill="#FFFFFF" filter="url(#ffi5ggk)" height="186.7969" style="stroke: #A80036; stroke-width: 1.0;" width="10" x="287" y="1269.3516"/><rect fill="#FFFFFF" filter="url(#ffi5ggk)" height="14.1328" style="stroke: #A80036; stroke-width: 1.0;" width="10" x="600" y="122.5625"/><rect fill="#FFFFFF" filter="url(#ffi5ggk)" height="71.2656" style="stroke: #A80036; stroke-width: 1.0;" width="10" x="747.5" y="402.4922"/><rect fill="#FFFFFF" filter="url(#ffi5ggk)" height="129.5313" style="stroke: #A80036; stroke-width: 1.0;" width="10" x="747.5" y="567.8281"/><rect fill="#FFFFFF" filter="url(#ffi5ggk)" height="43.2656" style="stroke: #A80036; stroke-width: 1.0;" width="10" x="747.5" y="733.4922"/><rect fill="#FFFFFF" filter="url(#ffi5ggk)" height="100.3984" style="stroke: #A80036; stroke-width: 1.0;" width="10" x="747.5" y="872.0234"/><rect fill="#FFFFFF" filter="url(#ffi5ggk)" height="14.1328" style="stroke: #A80036; stroke-width: 1.0;" width="10" x="747.5" y="1008.4219"/><rect fill="#FFFFFF" filter="url(#ffi5ggk)" height="30" style="stroke: #A80036; stroke-width: 1.0;" width="10" x="747.5" y="1051.5547"/><rect fill="#FFFFFF" filter="url(#ffi5ggk)" height="158.6641" style="stroke: #A80036; stroke-width: 1.0;" width="10" x="747.5" y="1110.6875"/><rect fill="#FFFFFF" filter="url(#ffi5ggk)" height="86.3984" style="stroke: #A80036; stroke-width: 1.0;" width="10" x="747.5" y="1369.75"/><rect fill="#FFFFFF" filter="url(#ffi5ggk)" height="30.1328" style="stroke: #A80036; stroke-width: 1.0;" width="10" x="747.5" y="1509.2813"/><rect fill="#FFFFFF" filter="url(#ffi5ggk)" height="79.3984" style="stroke: #FFFFFF; stroke-width: 1.0;" width="10" x="1013.5" y="402.4922"/><line style="stroke: #A80036; stroke-width: 1.0;" x1="1013.5" x2="1013.5" y1="402.4922" y2="481.8906"/><line style="stroke: #A80036; stroke-width: 1.0;" x1="1023.5" x2="1023.5" y1="402.4922" y2="481.8906"/><line style="stroke: #A80036; stroke-width: 1.0;" x1="1013.5" x2="1023.5" y1="402.4922" y2="402.4922"/><rect fill="#FFFFFF" filter="url(#ffi5ggk)" height="239.9297" style="stroke: #FFFFFF; stroke-width: 1.0;" width="10" x="1013.5" y="522.6953"/><line style="stroke: #A80036; stroke-width: 1.0;" x1="1013.5" x2="1013.5" y1="522.6953" y2="762.625"/><line style="stroke: #A80036; stroke-width: 1.0;" x1="1023.5" x2="1023.5" y1="522.6953" y2="762.625"/><line style="stroke: #A80036; stroke-width: 1.0;" x1="1013.5" x2="1023.5" y1="762.625" y2="762.625"/><rect fill="#FFFFFF" filter="url(#ffi5ggk)" height="57.2656" style="stroke: #A80036; stroke-width: 1.0;" width="10" x="1013.5" y="901.1563"/><rect fill="#FFFFFF" filter="url(#ffi5ggk)" height="224.7969" style="stroke: #A80036; stroke-width: 1.0;" width="10" x="1013.5" y="1008.4219"/><rect fill="#FFFFFF" filter="url(#ffi5ggk)" height="14.1328" style="stroke: #A80036; stroke-width: 1.0;" width="10" x="1013.5" y="1398.8828"/><rect fill="#FFFFFF" filter="url(#ffi5ggk)" height="203.7969" style="stroke: #000000; stroke-width: 2.0;" width="686.5" x="13" y="55.2969"/><rect fill="#FFFFFF" filter="url(#ffi5ggk)" height="101.3984" style="stroke: #000000; stroke-width: 2.0;" width="247" x="201" y="273.0938"/><rect fill="#FFFFFF" filter="url(#ffi5ggk)" height="175.7969" style="stroke: #000000; stroke-width: 2.0;" width="873.5" x="201" y="529.6953"/><rect fill="#FFFFFF" filter="url(#ffi5ggk)" height="188.6641" style="stroke: #000000; stroke-width: 2.0;" width="1048.5" x="201" y="791.7578"/><rect fill="#FFFFFF" filter="url(#ffi5ggk)" height="60.2656" style="stroke: #000000; stroke-width: 2.0;" width="1048.5" x="201" y="1471.1484"/><line style="stroke: #A80036; stroke-width: 1.0;" x1="64" x2="64" y1="38.2969" y2="481.8906"/><line style="stroke: #A80036; stroke-width: 1.0; stroke-dasharray: 1.0,4.0;" x1="64" x2="64" y1="481.8906" y2="522.6953"/><line style="stroke: #A80036; stroke-width: 1.0;" x1="64" x2="64" y1="522.6953" y2="1548.4141"/><line style="stroke: #A80036; stroke-width: 1.0;" x1="292" x2="292" y1="38.2969" y2="481.8906"/><line style="stroke: #A80036; stroke-width: 1.0; stroke-dasharray: 1.0,4.0;" x1="292" x2="292" y1="481.8906" y2="522.6953"/><line style="stroke: #A80036; stroke-width: 1.0;" x1="292" x2="292" y1="522.6953" y2="1548.4141"/><line style="stroke: #A80036; stroke-width: 1.0;" x1="604.5" x2="604.5" y1="38.2969" y2="481.8906"/><line style="stroke: #A80036; stroke-width: 1.0; stroke-dasharray: 1.0,4.0;" x1="604.5" x2="604.5" y1="481.8906" y2="522.6953"/><line style="stroke: #A80036; stroke-width: 1.0;" x1="604.5" x2="604.5" y1="522.6953" y2="1548.4141"/><line style="stroke: #A80036; stroke-width: 1.0;" x1="752.5" x2="752.5" y1="38.2969" y2="481.8906"/><line style="stroke: #A80036; stroke-width: 1.0; stroke-dasharray: 1.0,4.0;" x1="752.5" x2="752.5" y1="481.8906" y2="522.6953"/><line style="stroke: #A80036; stroke-width: 1.0;" x1="752.5" x2="752.5" y1="522.6953" y2="1548.4141"/><line style="stroke: #A80036; stroke-width: 1.0;" x1="1018.5" x2="1018.5" y1="38.2969" y2="481.8906"/><line style="stroke: #A80036; stroke-width: 1.0; stroke-dasharray: 1.0,4.0;" x1="1018.5" x2="1018.5" y1="481.8906" y2="522.6953"/><line style="stroke: #A80036; stroke-width: 1.0;" x1="1018.5" x2="1018.5" y1="522.6953" y2="1548.4141"/><line style="stroke: #A80036; stroke-width: 1.0;" x1="1187.5" x2="1187.5" y1="38.2969" y2="481.8906"/><line style="stroke: #A80036; stroke-width: 1.0; stroke-dasharray: 1.0,4.0;" x1="1187.5" x2="1187.5" y1="481.8906" y2="522.6953"/><line style="stroke: #A80036; stroke-width: 1.0;" x1="1187.5" x2="1187.5" y1="522.6953" y2="1548.4141"/><line style="stroke: #A80036; stroke-width: 1.0;" x1="1321.5" x2="1321.5" y1="38.2969" y2="481.8906"/><line style="stroke: #A80036; stroke-width: 1.0; stroke-dasharray: 1.0,4.0;" x1="1321.5" x2="1321.5" y1="481.8906" y2="522.6953"/><line style="stroke: #A80036; stroke-width: 1.0;" x1="1321.5" x2="1321.5" y1="522.6953" y2="1548.4141"/><line style="stroke: #A80036; stroke-width: 1.0;" x1="1446.5" x2="1446.5" y1="38.2969" y2="481.8906"/><line style="stroke: #A80036; stroke-width: 1.0; stroke-dasharray: 1.0,4.0;" x1="1446.5" x2="1446.5" y1="481.8906" y2="522.6953"/><line style="stroke: #A80036; stroke-width: 1.0;" x1="1446.5" x2="1446.5" y1="522.6953" y2="1548.4141"/><rect fill="#FEFECE" filter="url(#ffi5ggk)" height="30.2969" style="stroke: #A80036; stroke-width: 1.5;" width="78" x="23" y="3"/><text fill="#000000" font-family="sans-serif" font-size="14" lengthAdjust="spacingAndGlyphs" textLength="64" x="30" y="22.9951">clientApp</text><rect fill="#FEFECE" filter="url(#ffi5ggk)" height="30.2969" style="stroke: #A80036; stroke-width: 1.5;" width="78" x="23" y="1547.4141"/><text fill="#000000" font-family="sans-serif" font-size="14" lengthAdjust="spacingAndGlyphs" textLength="64" x="30" y="1567.4092">clientApp</text><rect fill="#FEFECE" filter="url(#ffi5ggk)" height="30.2969" style="stroke: #A80036; stroke-width: 1.5;" width="158" x="211" y="3"/><text fill="#000000" font-family="sans-serif" font-size="14" lengthAdjust="spacingAndGlyphs" textLength="144" x="218" y="22.9951">reservationController</text><rect fill="#FEFECE" filter="url(#ffi5ggk)" height="30.2969" style="stroke: #A80036; stroke-width: 1.5;" width="158" x="211" y="1547.4141"/><text fill="#000000" font-family="sans-serif" font-size="14" lengthAdjust="spacingAndGlyphs" textLength="144" x="218" y="1567.4092">reservationController</text><rect fill="#FEFECE" filter="url(#ffi5ggk)" height="30.2969" style="stroke: #A80036; stroke-width: 1.5;" width="165" x="520.5" y="3"/><text fill="#000000" font-family="sans-serif" font-size="14" lengthAdjust="spacingAndGlyphs" textLength="151" x="527.5" y="22.9951">powerStationManager</text><rect fill="#FEFECE" filter="url(#ffi5ggk)" height="30.2969" style="stroke: #A80036; stroke-width: 1.5;" width="165" x="520.5" y="1547.4141"/><text fill="#000000" font-family="sans-serif" font-size="14" lengthAdjust="spacingAndGlyphs" textLength="151" x="527.5" y="1567.4092">powerStationManager</text><rect fill="#FEFECE" filter="url(#ffi5ggk)" height="30.2969" style="stroke: #A80036; stroke-width: 1.5;" width="102" x="699.5" y="3"/><text fill="#000000" font-family="sans-serif" font-size="14" lengthAdjust="spacingAndGlyphs" textLength="88" x="706.5" y="22.9951">carController</text><rect fill="#FEFECE" filter="url(#ffi5ggk)" height="30.2969" style="stroke: #A80036; stroke-width: 1.5;" width="102" x="699.5" y="1547.4141"/><text fill="#000000" font-family="sans-serif" font-size="14" lengthAdjust="spacingAndGlyphs" textLength="88" x="706.5" y="1567.4092">carController</text><rect fill="#FEFECE" filter="url(#ffi5ggk)" height="30.2969" style="stroke: #A80036; stroke-width: 1.5;" width="88" x="972.5" y="3"/><text fill="#000000" font-family="sans-serif" font-size="14" lengthAdjust="spacingAndGlyphs" textLength="74" x="979.5" y="22.9951">carHandler</text><rect fill="#FEFECE" filter="url(#ffi5ggk)" height="30.2969" style="stroke: #A80036; stroke-width: 1.5;" width="88" x="972.5" y="1547.4141"/><text fill="#000000" font-family="sans-serif" font-size="14" lengthAdjust="spacingAndGlyphs" textLength="74" x="979.5" y="1567.4092">carHandler</text><rect fill="#FEFECE" filter="url(#ffi5ggk)" height="30.2969" style="stroke: #A80036; stroke-width: 1.5;" width="100" x="1135.5" y="3"/><text fill="#000000" font-family="sans-serif" font-size="14" lengthAdjust="spacingAndGlyphs" textLength="86" x="1142.5" y="22.9951">operatorApp</text><rect fill="#FEFECE" filter="url(#ffi5ggk)" height="30.2969" style="stroke: #A80036; stroke-width: 1.5;" width="100" x="1135.5" y="1547.4141"/><text fill="#000000" font-family="sans-serif" font-size="14" lengthAdjust="spacingAndGlyphs" textLength="86" x="1142.5" y="1567.4092">operatorApp</text><rect fill="#FEFECE" filter="url(#ffi5ggk)" height="30.2969" style="stroke: #A80036; stroke-width: 1.5;" width="141" x="1249.5" y="3"/><text fill="#000000" font-family="sans-serif" font-size="14" lengthAdjust="spacingAndGlyphs" textLength="127" x="1256.5" y="22.9951">paymentController</text><rect fill="#FEFECE" filter="url(#ffi5ggk)" height="30.2969" style="stroke: #A80036; stroke-width: 1.5;" width="141" x="1249.5" y="1547.4141"/><text fill="#000000" font-family="sans-serif" font-size="14" lengthAdjust="spacingAndGlyphs" textLength="127" x="1256.5" y="1567.4092">paymentController</text><rect fill="#FEFECE" filter="url(#ffi5ggk)" height="30.2969" style="stroke: #A80036; stroke-width: 1.5;" width="80" x="1404.5" y="3"/><text fill="#000000" font-family="sans-serif" font-size="14" lengthAdjust="spacingAndGlyphs" textLength="66" x="1411.5" y="22.9951">Database</text><rect fill="#FEFECE" filter="url(#ffi5ggk)" height="30.2969" style="stroke: #A80036; stroke-width: 1.5;" width="80" x="1404.5" y="1547.4141"/><text fill="#000000" font-family="sans-serif" font-size="14" lengthAdjust="spacingAndGlyphs" textLength="66" x="1411.5" y="1567.4092">Database</text><rect fill="#FFFFFF" filter="url(#ffi5ggk)" height="14.1328" style="stroke: #A80036; stroke-width: 1.0;" width="10" x="59" y="165.6953"/><rect fill="#FFFFFF" filter="url(#ffi5ggk)" height="380.3281" style="stroke: #A80036; stroke-width: 1.0;" width="10" x="287" y="93.4297"/><rect fill="#FFFFFF" filter="url(#ffi5ggk)" height="71.2656" style="stroke: #A80036; stroke-width: 1.0;" width="10" x="287" y="596.9609"/><rect fill="#FFFFFF" filter="url(#ffi5ggk)" height="14.1328" style="stroke: #A80036; stroke-width: 1.0;" width="10" x="287" y="762.625"/><rect fill="#FFFFFF" filter="url(#ffi5ggk)" height="134.5313" style="stroke: #A80036; stroke-width: 1.0;" width="10" x="287" y="837.8906"/><rect fill="#FFFFFF" filter="url(#ffi5ggk)" height="186.7969" style="stroke: #A80036; stroke-width: 1.0;" width="10" x="287" y="1269.3516"/><rect fill="#FFFFFF" filter="url(#ffi5ggk)" height="14.1328" style="stroke: #A80036; stroke-width: 1.0;" width="10" x="600" y="122.5625"/><rect fill="#FFFFFF" filter="url(#ffi5ggk)" height="71.2656" style="stroke: #A80036; stroke-width: 1.0;" width="10" x="747.5" y="402.4922"/><rect fill="#FFFFFF" filter="url(#ffi5ggk)" height="129.5313" style="stroke: #A80036; stroke-width: 1.0;" width="10" x="747.5" y="567.8281"/><rect fill="#FFFFFF" filter="url(#ffi5ggk)" height="43.2656" style="stroke: #A80036; stroke-width: 1.0;" width="10" x="747.5" y="733.4922"/><rect fill="#FFFFFF" filter="url(#ffi5ggk)" height="100.3984" style="stroke: #A80036; stroke-width: 1.0;" width="10" x="747.5" y="872.0234"/><rect fill="#FFFFFF" filter="url(#ffi5ggk)" height="14.1328" style="stroke: #A80036; stroke-width: 1.0;" width="10" x="747.5" y="1008.4219"/><rect fill="#FFFFFF" filter="url(#ffi5ggk)" height="30" style="stroke: #A80036; stroke-width: 1.0;" width="10" x="747.5" y="1051.5547"/><rect fill="#FFFFFF" filter="url(#ffi5ggk)" height="158.6641" style="stroke: #A80036; stroke-width: 1.0;" width="10" x="747.5" y="1110.6875"/><rect fill="#FFFFFF" filter="url(#ffi5ggk)" height="86.3984" style="stroke: #A80036; stroke-width: 1.0;" width="10" x="747.5" y="1369.75"/><rect fill="#FFFFFF" filter="url(#ffi5ggk)" height="30.1328" style="stroke: #A80036; stroke-width: 1.0;" width="10" x="747.5" y="1509.2813"/><rect fill="#FFFFFF" filter="url(#ffi5ggk)" height="79.3984" style="stroke: #FFFFFF; stroke-width: 1.0;" width="10" x="1013.5" y="402.4922"/><line style="stroke: #A80036; stroke-width: 1.0;" x1="1013.5" x2="1013.5" y1="402.4922" y2="481.8906"/><line style="stroke: #A80036; stroke-width: 1.0;" x1="1023.5" x2="1023.5" y1="402.4922" y2="481.8906"/><line style="stroke: #A80036; stroke-width: 1.0;" x1="1013.5" x2="1023.5" y1="402.4922" y2="402.4922"/><rect fill="#FFFFFF" filter="url(#ffi5ggk)" height="239.9297" style="stroke: #FFFFFF; stroke-width: 1.0;" width="10" x="1013.5" y="522.6953"/><line style="stroke: #A80036; stroke-width: 1.0;" x1="1013.5" x2="1013.5" y1="522.6953" y2="762.625"/><line style="stroke: #A80036; stroke-width: 1.0;" x1="1023.5" x2="1023.5" y1="522.6953" y2="762.625"/><line style="stroke: #A80036; stroke-width: 1.0;" x1="1013.5" x2="1023.5" y1="762.625" y2="762.625"/><rect fill="#FFFFFF" filter="url(#ffi5ggk)" height="57.2656" style="stroke: #A80036; stroke-width: 1.0;" width="10" x="1013.5" y="901.1563"/><rect fill="#FFFFFF" filter="url(#ffi5ggk)" height="224.7969" style="stroke: #A80036; stroke-width: 1.0;" width="10" x="1013.5" y="1008.4219"/><rect fill="#FFFFFF" filter="url(#ffi5ggk)" height="14.1328" style="stroke: #A80036; stroke-width: 1.0;" width="10" x="1013.5" y="1398.8828"/><rect fill="none" height="203.7969" style="stroke: #000000; stroke-width: 2.0;" width="686.5" x="13" y="55.2969"/><polygon fill="#EEEEEE" points="13,55.2969,83,55.2969,83,62.2969,73,72.2969,13,72.2969,13,55.2969" style="stroke: #000000; stroke-width: 2.0;"/><text fill="#000000" font-family="sans-serif" font-size="13" font-weight="bold" lengthAdjust="spacingAndGlyphs" textLength="25" x="28" y="68.3638">opt</text><text fill="#000000" font-family="sans-serif" font-size="11" font-weight="bold" lengthAdjust="spacingAndGlyphs" textLength="146" x="98" y="67.5073">[Money Saving Option]</text><polygon fill="#A80036" points="275,89.4297,285,93.4297,275,97.4297,279,93.4297" style="stroke: #A80036; stroke-width: 1.0;"/><line style="stroke: #A80036; stroke-width: 1.0;" x1="64" x2="281" y1="93.4297" y2="93.4297"/><text fill="#000000" font-family="sans-serif" font-size="13" lengthAdjust="spacingAndGlyphs" textLength="131" x="71" y="88.4966">mso(myDestination)</text><polygon fill="#A80036" points="588,118.5625,598,122.5625,588,126.5625,592,122.5625" style="stroke: #A80036; stroke-width: 1.0;"/><line style="stroke: #A80036; stroke-width: 1.0;" x1="297" x2="594" y1="122.5625" y2="122.5625"/><text fill="#000000" font-family="sans-serif" font-size="13" lengthAdjust="spacingAndGlyphs" textLength="222" x="304" y="117.6294">ps = getListOfPowerStations() : list</text><polygon fill="#A80036" points="308,132.6953,298,136.6953,308,140.6953,304,136.6953" style="stroke: #A80036; stroke-width: 1.0;"/><line style="stroke: #A80036; stroke-width: 1.0;" x1="302" x2="604" y1="136.6953" y2="136.6953"/><polygon fill="#A80036" points="80,161.6953,70,165.6953,80,169.6953,76,165.6953" style="stroke: #A80036; stroke-width: 1.0;"/><line style="stroke: #A80036; stroke-width: 1.0;" x1="74" x2="286" y1="165.6953" y2="165.6953"/><text fill="#000000" font-family="sans-serif" font-size="13" lengthAdjust="spacingAndGlyphs" textLength="199" x="86" y="160.7622">position : getPosition(myClient)</text><polygon fill="#A80036" points="275,175.8281,285,179.8281,275,183.8281,279,179.8281" style="stroke: #A80036; stroke-width: 1.0;"/><line style="stroke: #A80036; stroke-width: 1.0;" x1="64" x2="281" y1="179.8281" y2="179.8281"/><line style="stroke: #A80036; stroke-width: 1.0;" x1="297" x2="339" y1="208.9609" y2="208.9609"/><line style="stroke: #A80036; stroke-width: 1.0;" x1="339" x2="339" y1="208.9609" y2="221.9609"/><line style="stroke: #A80036; stroke-width: 1.0;" x1="298" x2="339" y1="221.9609" y2="221.9609"/><polygon fill="#A80036" points="308,217.9609,298,221.9609,308,225.9609,304,221.9609" style="stroke: #A80036; stroke-width: 1.0;"/><text fill="#000000" font-family="sans-serif" font-size="13" lengthAdjust="spacingAndGlyphs" textLength="289" x="304" y="203.895">dest = calculateBestDestination(position, ps)</text><polygon fill="#A80036" points="75,246.9609,65,250.9609,75,254.9609,71,250.9609" style="stroke: #A80036; stroke-width: 1.0;"/><line style="stroke: #A80036; stroke-width: 1.0;" x1="69" x2="286" y1="250.9609" y2="250.9609"/><text fill="#000000" font-family="sans-serif" font-size="13" lengthAdjust="spacingAndGlyphs" textLength="69" x="81" y="246.0278">send(dest)</text><rect fill="none" height="101.3984" style="stroke: #000000; stroke-width: 2.0;" width="247" x="201" y="273.0938"/><polygon fill="#EEEEEE" points="201,273.0938,278,273.0938,278,280.0938,268,290.0938,201,290.0938,201,273.0938" style="stroke: #000000; stroke-width: 2.0;"/><text fill="#000000" font-family="sans-serif" font-size="13" font-weight="bold" lengthAdjust="spacingAndGlyphs" textLength="32" x="216" y="286.1606">loop</text><text fill="#000000" font-family="sans-serif" font-size="11" font-weight="bold" lengthAdjust="spacingAndGlyphs" textLength="150" x="293" y="285.3042">[engineStarted = false]</text><line style="stroke: #A80036; stroke-width: 1.0;" x1="297" x2="339" y1="311.3594" y2="311.3594"/><line style="stroke: #A80036; stroke-width: 1.0;" x1="339" x2="339" y1="311.3594" y2="324.3594"/><line style="stroke: #A80036; stroke-width: 1.0;" x1="298" x2="339" y1="324.3594" y2="324.3594"/><polygon fill="#A80036" points="308,320.3594,298,324.3594,308,328.3594,304,324.3594" style="stroke: #A80036; stroke-width: 1.0;"/><text fill="#000000" font-family="sans-serif" font-size="13" lengthAdjust="spacingAndGlyphs" textLength="79" x="304" y="306.2935">countdown()</text><line style="stroke: #A80036; stroke-width: 1.0;" x1="297" x2="339" y1="353.4922" y2="353.4922"/><line style="stroke: #A80036; stroke-width: 1.0;" x1="339" x2="339" y1="353.4922" y2="366.4922"/><line style="stroke: #A80036; stroke-width: 1.0;" x1="298" x2="339" y1="366.4922" y2="366.4922"/><polygon fill="#A80036" points="308,362.4922,298,366.4922,308,370.4922,304,366.4922" style="stroke: #A80036; stroke-width: 1.0;"/><text fill="#000000" font-family="sans-serif" font-size="13" lengthAdjust="spacingAndGlyphs" textLength="110" x="304" y="348.4263">increaseCharge()</text><polygon fill="#A80036" points="768.5,398.4922,758.5,402.4922,768.5,406.4922,764.5,402.4922" style="stroke: #A80036; stroke-width: 1.0;"/><line style="stroke: #A80036; stroke-width: 1.0;" x1="762.5" x2="1012.5" y1="402.4922" y2="402.4922"/><text fill="#000000" font-family="sans-serif" font-size="13" lengthAdjust="spacingAndGlyphs" textLength="121" x="774.5" y="397.5591">engineStarted(car)</text><line style="stroke: #A80036; stroke-width: 1.0;" x1="1023.5" x2="1065.5" y1="431.7578" y2="431.7578"/><line style="stroke: #A80036; stroke-width: 1.0;" x1="1065.5" x2="1065.5" y1="431.7578" y2="444.7578"/><line style="stroke: #A80036; stroke-width: 1.0;" x1="1024.5" x2="1065.5" y1="444.7578" y2="444.7578"/><polygon fill="#A80036" points="1034.5,440.7578,1024.5,444.7578,1034.5,448.7578,1030.5,444.7578" style="stroke: #A80036; stroke-width: 1.0;"/><text fill="#000000" font-family="sans-serif" font-size="13" lengthAdjust="spacingAndGlyphs" textLength="109" x="1030.5" y="426.6919">startTimeCount()</text><polygon fill="#A80036" points="303,469.7578,293,473.7578,303,477.7578,299,473.7578" style="stroke: #A80036; stroke-width: 1.0;"/><line style="stroke: #A80036; stroke-width: 1.0;" x1="297" x2="751.5" y1="473.7578" y2="473.7578"/><text fill="#000000" font-family="sans-serif" font-size="13" lengthAdjust="spacingAndGlyphs" textLength="156" x="309" y="468.8247">notifyEngineStarted(car)</text><text fill="#000000" font-family="sans-serif" font-size="11" lengthAdjust="spacingAndGlyphs" textLength="27" x="709.25" y="506.1011">After</text><text fill="#000000" font-family="sans-serif" font-size="11" lengthAdjust="spacingAndGlyphs" textLength="61" x="740.25" y="506.1011">some time</text><text fill="#000000" font-family="sans-serif" font-size="11" lengthAdjust="spacingAndGlyphs" textLength="0" x="805.25" y="506.1011"/><rect fill="none" height="175.7969" style="stroke: #000000; stroke-width: 2.0;" width="873.5" x="201" y="529.6953"/><polygon fill="#EEEEEE" points="201,529.6953,278,529.6953,278,536.6953,268,546.6953,201,546.6953,201,529.6953" style="stroke: #000000; stroke-width: 2.0;"/><text fill="#000000" font-family="sans-serif" font-size="13" font-weight="bold" lengthAdjust="spacingAndGlyphs" textLength="32" x="216" y="542.7622">loop</text><text fill="#000000" font-family="sans-serif" font-size="11" font-weight="bold" lengthAdjust="spacingAndGlyphs" textLength="153" x="293" y="541.9058">[engineStarted == true]</text><polygon fill="#A80036" points="768.5,563.8281,758.5,567.8281,768.5,571.8281,764.5,567.8281" style="stroke: #A80036; stroke-width: 1.0;"/><line style="stroke: #A80036; stroke-width: 1.0;" x1="762.5" x2="1012.5" y1="567.8281" y2="567.8281"/><text fill="#000000" font-family="sans-serif" font-size="13" lengthAdjust="spacingAndGlyphs" textLength="133" x="774.5" y="562.895">time = timePassed()</text><polygon fill="#A80036" points="308,592.9609,298,596.9609,308,600.9609,304,596.9609" style="stroke: #A80036; stroke-width: 1.0;"/><line style="stroke: #A80036; stroke-width: 1.0;" x1="302" x2="746.5" y1="596.9609" y2="596.9609"/><text fill="#000000" font-family="sans-serif" font-size="13" lengthAdjust="spacingAndGlyphs" textLength="101" x="314" y="592.0278">sendTime(time)</text><line style="stroke: #A80036; stroke-width: 1.0;" x1="297" x2="339" y1="626.2266" y2="626.2266"/><line style="stroke: #A80036; stroke-width: 1.0;" x1="339" x2="339" y1="626.2266" y2="639.2266"/><line style="stroke: #A80036; stroke-width: 1.0;" x1="298" x2="339" y1="639.2266" y2="639.2266"/><polygon fill="#A80036" points="308,635.2266,298,639.2266,308,643.2266,304,639.2266" style="stroke: #A80036; stroke-width: 1.0;"/><text fill="#000000" font-family="sans-serif" font-size="13" lengthAdjust="spacingAndGlyphs" textLength="253" x="304" y="621.1606">charge = calculateCurrentCharge(time)</text><polygon fill="#A80036" points="735.5,664.2266,745.5,668.2266,735.5,672.2266,739.5,668.2266" style="stroke: #A80036; stroke-width: 1.0;"/><line style="stroke: #A80036; stroke-width: 1.0;" x1="292" x2="741.5" y1="668.2266" y2="668.2266"/><text fill="#000000" font-family="sans-serif" font-size="13" lengthAdjust="spacingAndGlyphs" textLength="207" x="299" y="663.2935">sendCurrentCharge(charge, car)</text><polygon fill="#A80036" points="1001.5,693.3594,1011.5,697.3594,1001.5,701.3594,1005.5,697.3594" style="stroke: #A80036; stroke-width: 1.0;"/><line style="stroke: #A80036; stroke-width: 1.0;" x1="752.5" x2="1007.5" y1="697.3594" y2="697.3594"/><text fill="#000000" font-family="sans-serif" font-size="13" lengthAdjust="spacingAndGlyphs" textLength="220" x="759.5" y="692.4263">displayCurrentCharge(charge, car)</text><polygon fill="#A80036" points="768.5,729.4922,758.5,733.4922,768.5,737.4922,764.5,733.4922" style="stroke: #A80036; stroke-width: 1.0;"/><line style="stroke: #A80036; stroke-width: 1.0;" x1="762.5" x2="1012.5" y1="733.4922" y2="733.4922"/><text fill="#000000" font-family="sans-serif" font-size="13" lengthAdjust="spacingAndGlyphs" textLength="127" x="774.5" y="728.5591">engineStopped(car)</text><polygon fill="#A80036" points="308,758.625,298,762.625,308,766.625,304,762.625" style="stroke: #A80036; stroke-width: 1.0;"/><line style="stroke: #A80036; stroke-width: 1.0;" x1="302" x2="746.5" y1="762.625" y2="762.625"/><text fill="#000000" font-family="sans-serif" font-size="13" lengthAdjust="spacingAndGlyphs" textLength="125" x="314" y="757.6919">enginestopped(car)</text><polygon fill="#A80036" points="740.5,772.7578,750.5,776.7578,740.5,780.7578,744.5,776.7578" style="stroke: #A80036; stroke-width: 1.0;"/><line style="stroke: #A80036; stroke-width: 1.0;" x1="292" x2="746.5" y1="776.7578" y2="776.7578"/><rect fill="none" height="188.6641" style="stroke: #000000; stroke-width: 2.0;" width="1048.5" x="201" y="791.7578"/><polygon fill="#EEEEEE" points="201,791.7578,271,791.7578,271,798.7578,261,808.7578,201,808.7578,201,791.7578" style="stroke: #000000; stroke-width: 2.0;"/><text fill="#000000" font-family="sans-serif" font-size="13" font-weight="bold" lengthAdjust="spacingAndGlyphs" textLength="25" x="216" y="804.8247">opt</text><text fill="#000000" font-family="sans-serif" font-size="11" font-weight="bold" lengthAdjust="spacingAndGlyphs" textLength="374" x="286" y="803.9683">[engine stopped but people onboard or outside safe area]</text><line style="stroke: #A80036; stroke-width: 1.0;" x1="292" x2="339" y1="825.0234" y2="825.0234"/><line style="stroke: #A80036; stroke-width: 1.0;" x1="339" x2="339" y1="825.0234" y2="838.0234"/><line style="stroke: #A80036; stroke-width: 1.0;" x1="298" x2="339" y1="838.0234" y2="838.0234"/><polygon fill="#A80036" points="308,834.0234,298,838.0234,308,842.0234,304,838.0234" style="stroke: #A80036; stroke-width: 1.0;"/><text fill="#000000" font-family="sans-serif" font-size="13" lengthAdjust="spacingAndGlyphs" textLength="113" x="304" y="819.9575">start countdown()</text><polygon fill="#A80036" points="735.5,868.0234,745.5,872.0234,735.5,876.0234,739.5,872.0234" style="stroke: #A80036; stroke-width: 1.0;"/><line style="stroke: #A80036; stroke-width: 1.0;" x1="297" x2="741.5" y1="872.0234" y2="872.0234"/><text fill="#000000" font-family="sans-serif" font-size="13" lengthAdjust="spacingAndGlyphs" textLength="123" x="304" y="867.0903">notify(timeout, car)</text><polygon fill="#A80036" points="1001.5,897.1563,1011.5,901.1563,1001.5,905.1563,1005.5,901.1563" style="stroke: #A80036; stroke-width: 1.0;"/><line style="stroke: #A80036; stroke-width: 1.0;" x1="757.5" x2="1007.5" y1="901.1563" y2="901.1563"/><text fill="#000000" font-family="sans-serif" font-size="13" lengthAdjust="spacingAndGlyphs" textLength="123" x="764.5" y="896.2231">notify(timeout, car)</text><polygon fill="#A80036" points="1175.5,926.2891,1185.5,930.2891,1175.5,934.2891,1179.5,930.2891" style="stroke: #A80036; stroke-width: 1.0;"/><line style="stroke: #A80036; stroke-width: 1.0;" x1="1023.5" x2="1181.5" y1="930.2891" y2="930.2891"/><text fill="#000000" font-family="sans-serif" font-size="13" lengthAdjust="spacingAndGlyphs" textLength="140" x="1030.5" y="925.356">notifyCarProblem(car)</text><polygon fill="#A80036" points="1034.5,940.4219,1024.5,944.4219,1034.5,948.4219,1030.5,944.4219" style="stroke: #A80036; stroke-width: 1.0;"/><line style="stroke: #A80036; stroke-width: 1.0;" x1="1028.5" x2="1186.5" y1="944.4219" y2="944.4219"/><polygon fill="#A80036" points="768.5,954.4219,758.5,958.4219,768.5,962.4219,764.5,958.4219" style="stroke: #A80036; stroke-width: 1.0;"/><line style="stroke: #A80036; stroke-width: 1.0;" x1="762.5" x2="1017.5" y1="958.4219" y2="958.4219"/><polygon fill="#A80036" points="303,968.4219,293,972.4219,303,976.4219,299,972.4219" style="stroke: #A80036; stroke-width: 1.0;"/><line style="stroke: #A80036; stroke-width: 1.0;" x1="297" x2="751.5" y1="972.4219" y2="972.4219"/><polygon fill="#A80036" points="768.5,1004.4219,758.5,1008.4219,768.5,1012.4219,764.5,1008.4219" style="stroke: #A80036; stroke-width: 1.0;"/><line style="stroke: #A80036; stroke-width: 1.0;" x1="762.5" x2="1012.5" y1="1008.4219" y2="1008.4219"/><text fill="#000000" font-family="sans-serif" font-size="13" lengthAdjust="spacingAndGlyphs" textLength="122" x="774.5" y="1003.4888">passengersOff(car)</text><polygon fill="#A80036" points="1001.5,1018.5547,1011.5,1022.5547,1001.5,1026.5547,1005.5,1022.5547" style="stroke: #A80036; stroke-width: 1.0;"/><line style="stroke: #A80036; stroke-width: 1.0;" x1="752.5" x2="1007.5" y1="1022.5547" y2="1022.5547"/><polygon fill="#A80036" points="768.5,1047.5547,758.5,1051.5547,768.5,1055.5547,764.5,1051.5547" style="stroke: #A80036; stroke-width: 1.0;"/><line style="stroke: #A80036; stroke-width: 1.0;" x1="762.5" x2="1012.5" y1="1051.5547" y2="1051.5547"/><text fill="#000000" font-family="sans-serif" font-size="13" lengthAdjust="spacingAndGlyphs" textLength="144" x="774.5" y="1046.6216">parkedInSafeArea(car)</text><polygon fill="#A80036" points="768.5,1106.6875,758.5,1110.6875,768.5,1114.6875,764.5,1110.6875" style="stroke: #A80036; stroke-width: 1.0;"/><line style="stroke: #A80036; stroke-width: 1.0;" x1="762.5" x2="1012.5" y1="1110.6875" y2="1110.6875"/><text fill="#000000" font-family="sans-serif" font-size="13" lengthAdjust="spacingAndGlyphs" textLength="227" x="774.5" y="1105.7544">send paymentInfo(car, passengers)</text><polygon fill="#A80036" points="768.5,1135.8203,758.5,1139.8203,768.5,1143.8203,764.5,1139.8203" style="stroke: #A80036; stroke-width: 1.0;"/><line style="stroke: #A80036; stroke-width: 1.0;" x1="762.5" x2="1012.5" y1="1139.8203" y2="1139.8203"/><text fill="#000000" font-family="sans-serif" font-size="13" lengthAdjust="spacingAndGlyphs" textLength="232" x="774.5" y="1134.8872">send paymentInfo(car, batteryLevel)</text><polygon fill="#A80036" points="768.5,1164.9531,758.5,1168.9531,768.5,1172.9531,764.5,1168.9531" style="stroke: #A80036; stroke-width: 1.0;"/><line style="stroke: #A80036; stroke-width: 1.0;" x1="762.5" x2="1012.5" y1="1168.9531" y2="1168.9531"/><text fill="#000000" font-family="sans-serif" font-size="13" lengthAdjust="spacingAndGlyphs" textLength="204" x="774.5" y="1164.02">send paymentInfo(car, plugged)</text><polygon fill="#A80036" points="768.5,1194.0859,758.5,1198.0859,768.5,1202.0859,764.5,1198.0859" style="stroke: #A80036; stroke-width: 1.0;"/><line style="stroke: #A80036; stroke-width: 1.0;" x1="762.5" x2="1012.5" y1="1198.0859" y2="1198.0859"/><text fill="#000000" font-family="sans-serif" font-size="13" lengthAdjust="spacingAndGlyphs" textLength="203" x="774.5" y="1193.1528">send paymentInfo(car, position)</text><line style="stroke: #A80036; stroke-width: 1.0;" x1="1023.5" x2="1065.5" y1="1232.3516" y2="1232.3516"/><line style="stroke: #A80036; stroke-width: 1.0;" x1="1065.5" x2="1065.5" y1="1232.3516" y2="1245.3516"/><line style="stroke: #A80036; stroke-width: 1.0;" x1="1018.5" x2="1065.5" y1="1245.3516" y2="1245.3516"/><polygon fill="#A80036" points="1028.5,1241.3516,1018.5,1245.3516,1028.5,1249.3516,1024.5,1245.3516" style="stroke: #A80036; stroke-width: 1.0;"/><text fill="#000000" font-family="sans-serif" font-size="13" lengthAdjust="spacingAndGlyphs" textLength="35" x="1030.5" y="1227.2856">lock()</text><polygon fill="#A80036" points="308,1265.3516,298,1269.3516,308,1273.3516,304,1269.3516" style="stroke: #A80036; stroke-width: 1.0;"/><line style="stroke: #A80036; stroke-width: 1.0;" x1="302" x2="751.5" y1="1269.3516" y2="1269.3516"/><text fill="#000000" font-family="sans-serif" font-size="13" lengthAdjust="spacingAndGlyphs" textLength="192" x="314" y="1264.4185">stopCharge(car, paymentInfo)</text><line style="stroke: #A80036; stroke-width: 1.0;" x1="297" x2="339" y1="1298.6172" y2="1298.6172"/><line style="stroke: #A80036; stroke-width: 1.0;" x1="339" x2="339" y1="1298.6172" y2="1311.6172"/><line style="stroke: #A80036; stroke-width: 1.0;" x1="298" x2="339" y1="1311.6172" y2="1311.6172"/><polygon fill="#A80036" points="308,1307.6172,298,1311.6172,308,1315.6172,304,1311.6172" style="stroke: #A80036; stroke-width: 1.0;"/><text fill="#000000" font-family="sans-serif" font-size="13" lengthAdjust="spacingAndGlyphs" textLength="205" x="304" y="1293.5513">calculateFinalCost(paymentInfo)</text><polygon fill="#A80036" points="1310,1336.6172,1320,1340.6172,1310,1344.6172,1314,1340.6172" style="stroke: #A80036; stroke-width: 1.0;"/><line style="stroke: #A80036; stroke-width: 1.0;" x1="297" x2="1316" y1="1340.6172" y2="1340.6172"/><text fill="#000000" font-family="sans-serif" font-size="13" lengthAdjust="spacingAndGlyphs" textLength="121" x="304" y="1335.6841">sendPaymentInfo()</text><polygon fill="#A80036" points="735.5,1365.75,745.5,1369.75,735.5,1373.75,739.5,1369.75" style="stroke: #A80036; stroke-width: 1.0;"/><line style="stroke: #A80036; stroke-width: 1.0;" x1="297" x2="741.5" y1="1369.75" y2="1369.75"/><text fill="#000000" font-family="sans-serif" font-size="13" lengthAdjust="spacingAndGlyphs" textLength="193" x="304" y="1364.8169">endReservation(car, myClient)</text><polygon fill="#A80036" points="1001.5,1394.8828,1011.5,1398.8828,1001.5,1402.8828,1005.5,1398.8828" style="stroke: #A80036; stroke-width: 1.0;"/><line style="stroke: #A80036; stroke-width: 1.0;" x1="757.5" x2="1007.5" y1="1398.8828" y2="1398.8828"/><text fill="#000000" font-family="sans-serif" font-size="13" lengthAdjust="spacingAndGlyphs" textLength="122" x="764.5" y="1393.9497">setToAvailable(car)</text><polygon fill="#A80036" points="768.5,1409.0156,758.5,1413.0156,768.5,1417.0156,764.5,1413.0156" style="stroke: #A80036; stroke-width: 1.0;"/><line style="stroke: #A80036; stroke-width: 1.0;" x1="762.5" x2="1017.5" y1="1413.0156" y2="1413.0156"/><polygon fill="#A80036" points="1434.5,1438.0156,1444.5,1442.0156,1434.5,1446.0156,1438.5,1442.0156" style="stroke: #A80036; stroke-width: 1.0;"/><line style="stroke: #A80036; stroke-width: 1.0;" x1="757.5" x2="1440.5" y1="1442.0156" y2="1442.0156"/><text fill="#000000" font-family="sans-serif" font-size="13" lengthAdjust="spacingAndGlyphs" textLength="163" x="764.5" y="1437.0825">setState(car, AVAILABLE)</text><polygon fill="#A80036" points="303,1452.1484,293,1456.1484,303,1460.1484,299,1456.1484" style="stroke: #A80036; stroke-width: 1.0;"/><line style="stroke: #A80036; stroke-width: 1.0;" x1="297" x2="751.5" y1="1456.1484" y2="1456.1484"/><rect fill="none" height="60.2656" style="stroke: #000000; stroke-width: 2.0;" width="1048.5" x="201" y="1471.1484"/><polygon fill="#EEEEEE" points="201,1471.1484,271,1471.1484,271,1478.1484,261,1488.1484,201,1488.1484,201,1471.1484" style="stroke: #000000; stroke-width: 2.0;"/><text fill="#000000" font-family="sans-serif" font-size="13" font-weight="bold" lengthAdjust="spacingAndGlyphs" textLength="25" x="216" y="1484.2153">opt</text><text fill="#000000" font-family="sans-serif" font-size="11" font-weight="bold" lengthAdjust="spacingAndGlyphs" textLength="329" x="286" y="1483.3589">[car with low battery or too far from power station]</text><polygon fill="#A80036" points="735.5,1505.2813,745.5,1509.2813,735.5,1513.2813,739.5,1509.2813" style="stroke: #A80036; stroke-width: 1.0;"/><line style="stroke: #A80036; stroke-width: 1.0;" x1="292" x2="741.5" y1="1509.2813" y2="1509.2813"/><text fill="#000000" font-family="sans-serif" font-size="13" lengthAdjust="spacingAndGlyphs" textLength="122" x="299" y="1504.3481">notifyOperator(car)</text><polygon fill="#A80036" points="1175.5,1519.4141,1185.5,1523.4141,1175.5,1527.4141,1179.5,1523.4141" style="stroke: #A80036; stroke-width: 1.0;"/><line style="stroke: #A80036; stroke-width: 1.0;" x1="757.5" x2="1181.5" y1="1523.4141" y2="1523.4141"/></g></svg>