<?xml version="1.0" encoding="UTF-8" standalone="no"?><svg xmlns="http://www.w3.org/2000/svg" xmlns:xlink="http://www.w3.org/1999/xlink" contentScriptType="application/ecmascript" contentStyleType="text/css" height="543px" preserveAspectRatio="none" style="width:1407px;height:543px;" version="1.1" viewBox="0 0 1407 543" width="1407px" zoomAndPan="magnify"><defs><filter height="300%" id="fbisozg" width="300%" x="-1" y="-1"><feGaussianBlur result="blurOut" stdDeviation="2.0"/><feColorMatrix in="blurOut" result="blurOut2" type="matrix" values="0 0 0 0 0 0 0 0 0 0 0 0 0 0 0 0 0 0 .4 0"/><feOffset dx="4.0" dy="4.0" in="blurOut2" result="blurOut3"/><feBlend in="SourceGraphic" in2="blurOut3" mode="normal"/></filter></defs><g><rect fill="#FFFFFF" filter="url(#fbisozg)" height="426.5938" style="stroke: #A80036; stroke-width: 1.0;" width="10" x="44" y="69.2969"/><rect fill="#FFFFFF" filter="url(#fbisozg)" height="426.5938" style="stroke: #A80036; stroke-width: 1.0;" width="10" x="273" y="69.2969"/><rect fill="#FFFFFF" filter="url(#fbisozg)" height="115.3984" style="stroke: #A80036; stroke-width: 1.0;" width="10" x="654" y="98.4297"/><rect fill="#FFFFFF" filter="url(#fbisozg)" height="14.1328" style="stroke: #A80036; stroke-width: 1.0;" width="10" x="944" y="127.5625"/><rect fill="#FFFFFF" filter="url(#fbisozg)" height="14.1328" style="stroke: #A80036; stroke-width: 1.0;" width="10" x="944" y="170.6953"/><rect fill="#FFFFFF" filter="url(#fbisozg)" height="14.1328" style="stroke: #A80036; stroke-width: 1.0;" width="10" x="944" y="272.0938"/><rect fill="#FFFFFF" filter="url(#fbisozg)" height="14.1328" style="stroke: #A80036; stroke-width: 1.0;" width="10" x="944" y="373.4922"/><rect fill="#FFFFFF" filter="url(#fbisozg)" height="158.6641" style="stroke: #A80036; stroke-width: 1.0;" width="10" x="1198" y="242.9609"/><rect fill="#FFFFFF" filter="url(#fbisozg)" height="29.1328" style="stroke: #A80036; stroke-width: 1.0;" width="10" x="1351" y="315.2266"/><line style="stroke: #A80036; stroke-width: 1.0; stroke-dasharray: 5.0,5.0;" x1="49" x2="49" y1="38.2969" y2="504.8906"/><line style="stroke: #A80036; stroke-width: 1.0; stroke-dasharray: 5.0,5.0;" x1="278" x2="278" y1="38.2969" y2="504.8906"/><line style="stroke: #A80036; stroke-width: 1.0; stroke-dasharray: 5.0,5.0;" x1="659" x2="659" y1="38.2969" y2="504.8906"/><line style="stroke: #A80036; stroke-width: 1.0; stroke-dasharray: 5.0,5.0;" x1="949" x2="949" y1="38.2969" y2="504.8906"/><line style="stroke: #A80036; stroke-width: 1.0; stroke-dasharray: 5.0,5.0;" x1="1203" x2="1203" y1="38.2969" y2="504.8906"/><line style="stroke: #A80036; stroke-width: 1.0; stroke-dasharray: 5.0,5.0;" x1="1356" x2="1356" y1="38.2969" y2="504.8906"/><rect fill="#FEFECE" filter="url(#fbisozg)" height="30.2969" style="stroke: #A80036; stroke-width: 1.5;" width="78" x="8" y="3"/><text fill="#000000" font-family="sans-serif" font-size="14" lengthAdjust="spacingAndGlyphs" textLength="64" x="15" y="22.9951">clientApp</text><rect fill="#FEFECE" filter="url(#fbisozg)" height="30.2969" style="stroke: #A80036; stroke-width: 1.5;" width="78" x="8" y="503.8906"/><text fill="#000000" font-family="sans-serif" font-size="14" lengthAdjust="spacingAndGlyphs" textLength="64" x="15" y="523.8857">clientApp</text><rect fill="#FEFECE" filter="url(#fbisozg)" height="30.2969" style="stroke: #A80036; stroke-width: 1.5;" width="158" x="197" y="3"/><text fill="#000000" font-family="sans-serif" font-size="14" lengthAdjust="spacingAndGlyphs" textLength="144" x="204" y="22.9951">reservationController</text><rect fill="#FEFECE" filter="url(#fbisozg)" height="30.2969" style="stroke: #A80036; stroke-width: 1.5;" width="158" x="197" y="503.8906"/><text fill="#000000" font-family="sans-serif" font-size="14" lengthAdjust="spacingAndGlyphs" textLength="144" x="204" y="523.8857">reservationController</text><rect fill="#FEFECE" filter="url(#fbisozg)" height="30.2969" style="stroke: #A80036; stroke-width: 1.5;" width="118" x="598" y="3"/><text fill="#000000" font-family="sans-serif" font-size="14" lengthAdjust="spacingAndGlyphs" textLength="104" x="605" y="22.9951">clientController</text><rect fill="#FEFECE" filter="url(#fbisozg)" height="30.2969" style="stroke: #A80036; stroke-width: 1.5;" width="118" x="598" y="503.8906"/><text fill="#000000" font-family="sans-serif" font-size="14" lengthAdjust="spacingAndGlyphs" textLength="104" x="605" y="523.8857">clientController</text><rect fill="#FEFECE" filter="url(#fbisozg)" height="30.2969" style="stroke: #A80036; stroke-width: 1.5;" width="80" x="907" y="3"/><text fill="#000000" font-family="sans-serif" font-size="14" lengthAdjust="spacingAndGlyphs" textLength="66" x="914" y="22.9951">Database</text><rect fill="#FEFECE" filter="url(#fbisozg)" height="30.2969" style="stroke: #A80036; stroke-width: 1.5;" width="80" x="907" y="503.8906"/><text fill="#000000" font-family="sans-serif" font-size="14" lengthAdjust="spacingAndGlyphs" textLength="66" x="914" y="523.8857">Database</text><rect fill="#FEFECE" filter="url(#fbisozg)" height="30.2969" style="stroke: #A80036; stroke-width: 1.5;" width="102" x="1150" y="3"/><text fill="#000000" font-family="sans-serif" font-size="14" lengthAdjust="spacingAndGlyphs" textLength="88" x="1157" y="22.9951">carController</text><rect fill="#FEFECE" filter="url(#fbisozg)" height="30.2969" style="stroke: #A80036; stroke-width: 1.5;" width="102" x="1150" y="503.8906"/><text fill="#000000" font-family="sans-serif" font-size="14" lengthAdjust="spacingAndGlyphs" textLength="88" x="1157" y="523.8857">carController</text><rect fill="#FEFECE" filter="url(#fbisozg)" height="30.2969" style="stroke: #A80036; stroke-width: 1.5;" width="88" x="1310" y="3"/><text fill="#000000" font-family="sans-serif" font-size="14" lengthAdjust="spacingAndGlyphs" textLength="74" x="1317" y="22.9951">carHandler</text><rect fill="#FEFECE" filter="url(#fbisozg)" height="30.2969" style="stroke: #A80036; stroke-width: 1.5;" width="88" x="1310" y="503.8906"/><text fill="#000000" font-family="sans-serif" font-size="14" lengthAdjust="spacingAndGlyphs" textLength="74" x="1317" y="523.8857">carHandler</text><rect fill="#FFFFFF" filter="url(#fbisozg)" height="426.5938" style="stroke: #A80036; stroke-width: 1.0;" width="10" x="44" y="69.2969"/><rect fill="#FFFFFF" filter="url(#fbisozg)" height="426.5938" style="stroke: #A80036; stroke-width: 1.0;" width="10" x="273" y="69.2969"/><rect fill="#FFFFFF" filter="url(#fbisozg)" height="115.3984" style="stroke: #A80036; stroke-width: 1.0;" width="10" x="654" y="98.4297"/><rect fill="#FFFFFF" filter="url(#fbisozg)" height="14.1328" style="stroke: #A80036; stroke-width: 1.0;" width="10" x="944" y="127.5625"/><rect fill="#FFFFFF" filter="url(#fbisozg)" height="14.1328" style="stroke: #A80036; stroke-width: 1.0;" width="10" x="944" y="170.6953"/><rect fill="#FFFFFF" filter="url(#fbisozg)" height="14.1328" style="stroke: #A80036; stroke-width: 1.0;" width="10" x="944" y="272.0938"/><rect fill="#FFFFFF" filter="url(#fbisozg)" height="14.1328" style="stroke: #A80036; stroke-width: 1.0;" width="10" x="944" y="373.4922"/><rect fill="#FFFFFF" filter="url(#fbisozg)" height="158.6641" style="stroke: #A80036; stroke-width: 1.0;" width="10" x="1198" y="242.9609"/><rect fill="#FFFFFF" filter="url(#fbisozg)" height="29.1328" style="stroke: #A80036; stroke-width: 1.0;" width="10" x="1351" y="315.2266"/><polygon fill="#A80036" points="261,65.2969,271,69.2969,261,73.2969,265,69.2969" style="stroke: #A80036; stroke-width: 1.0;"/><line style="stroke: #A80036; stroke-width: 1.0;" x1="54" x2="267" y1="69.2969" y2="69.2969"/><text fill="#000000" font-family="sans-serif" font-size="13" lengthAdjust="spacingAndGlyphs" textLength="205" x="61" y="64.3638">makeReservation(myClient, car)</text><polygon fill="#A80036" points="642,94.4297,652,98.4297,642,102.4297,646,98.4297" style="stroke: #A80036; stroke-width: 1.0;"/><line style="stroke: #A80036; stroke-width: 1.0;" x1="283" x2="648" y1="98.4297" y2="98.4297"/><text fill="#000000" font-family="sans-serif" font-size="13" lengthAdjust="spacingAndGlyphs" textLength="352" x="290" y="93.4966">valid = checkDebtsAndReservation(myClient) : boolean</text><polygon fill="#A80036" points="932,123.5625,942,127.5625,932,131.5625,936,127.5625" style="stroke: #A80036; stroke-width: 1.0;"/><line style="stroke: #A80036; stroke-width: 1.0;" x1="664" x2="938" y1="127.5625" y2="127.5625"/><text fill="#000000" font-family="sans-serif" font-size="13" lengthAdjust="spacingAndGlyphs" textLength="208" x="671" y="122.6294">debts = getDebts(myClient) : int</text><polygon fill="#A80036" points="675,137.6953,665,141.6953,675,145.6953,671,141.6953" style="stroke: #A80036; stroke-width: 1.0;"/><line style="stroke: #A80036; stroke-width: 1.0;" x1="669" x2="948" y1="141.6953" y2="141.6953"/><polygon fill="#A80036" points="932,166.6953,942,170.6953,932,174.6953,936,170.6953" style="stroke: #A80036; stroke-width: 1.0;"/><line style="stroke: #A80036; stroke-width: 1.0;" x1="664" x2="938" y1="170.6953" y2="170.6953"/><text fill="#000000" font-family="sans-serif" font-size="13" lengthAdjust="spacingAndGlyphs" textLength="261" x="671" y="165.7622">noRes = checkNoReservations(myClient)</text><polygon fill="#A80036" points="675,180.8281,665,184.8281,675,188.8281,671,184.8281" style="stroke: #A80036; stroke-width: 1.0;"/><line style="stroke: #A80036; stroke-width: 1.0;" x1="669" x2="948" y1="184.8281" y2="184.8281"/><polygon fill="#A80036" points="294,209.8281,284,213.8281,294,217.8281,290,213.8281" style="stroke: #A80036; stroke-width: 1.0;"/><line style="stroke: #A80036; stroke-width: 1.0;" x1="288" x2="658" y1="213.8281" y2="213.8281"/><text fill="#000000" font-family="sans-serif" font-size="13" lengthAdjust="spacingAndGlyphs" textLength="201" x="300" y="208.895">valid = (debts == 0 &amp;&amp; noRes)</text><polygon fill="#A80036" points="1186,238.9609,1196,242.9609,1186,246.9609,1190,242.9609" style="stroke: #A80036; stroke-width: 1.0;"/><line style="stroke: #A80036; stroke-width: 1.0;" x1="283" x2="1192" y1="242.9609" y2="242.9609"/><text fill="#000000" font-family="sans-serif" font-size="13" lengthAdjust="spacingAndGlyphs" textLength="100" x="290" y="238.0278">reserveCar(car)</text><polygon fill="#A80036" points="965,268.0938,955,272.0938,965,276.0938,961,272.0938" style="stroke: #A80036; stroke-width: 1.0;"/><line style="stroke: #A80036; stroke-width: 1.0;" x1="959" x2="1197" y1="272.0938" y2="272.0938"/><text fill="#000000" font-family="sans-serif" font-size="13" lengthAdjust="spacingAndGlyphs" textLength="179" x="971" y="267.1606">valid = checkifAvailable(car)</text><polygon fill="#A80036" points="1186,282.2266,1196,286.2266,1186,290.2266,1190,286.2266" style="stroke: #A80036; stroke-width: 1.0;"/><line style="stroke: #A80036; stroke-width: 1.0;" x1="949" x2="1192" y1="286.2266" y2="286.2266"/><polygon fill="#A80036" points="1339,311.2266,1349,315.2266,1339,319.2266,1343,315.2266" style="stroke: #A80036; stroke-width: 1.0;"/><line style="stroke: #A80036; stroke-width: 1.0;" x1="1208" x2="1345" y1="315.2266" y2="315.2266"/><text fill="#000000" font-family="sans-serif" font-size="13" lengthAdjust="spacingAndGlyphs" textLength="124" x="1215" y="310.2935">setToReserved(car)</text><polygon fill="#A80036" points="1219,340.3594,1209,344.3594,1219,348.3594,1215,344.3594" style="stroke: #A80036; stroke-width: 1.0;"/><line style="stroke: #A80036; stroke-width: 1.0;" x1="1213" x2="1355" y1="344.3594" y2="344.3594"/><text fill="#000000" font-family="sans-serif" font-size="13" lengthAdjust="spacingAndGlyphs" textLength="26" x="1225" y="339.4263">ACK</text><polygon fill="#A80036" points="965,369.4922,955,373.4922,965,377.4922,961,373.4922" style="stroke: #A80036; stroke-width: 1.0;"/><line style="stroke: #A80036; stroke-width: 1.0;" x1="959" x2="1197" y1="373.4922" y2="373.4922"/><text fill="#000000" font-family="sans-serif" font-size="13" lengthAdjust="spacingAndGlyphs" textLength="225" x="971" y="368.5591">setState(car, RESERVED, myClient)</text><polygon fill="#A80036" points="1186,383.625,1196,387.625,1186,391.625,1190,387.625" style="stroke: #A80036; stroke-width: 1.0;"/><line style="stroke: #A80036; stroke-width: 1.0;" x1="949" x2="1192" y1="387.625" y2="387.625"/><polygon fill="#A80036" points="294,397.625,284,401.625,294,405.625,290,401.625" style="stroke: #A80036; stroke-width: 1.0;"/><line style="stroke: #A80036; stroke-width: 1.0;" x1="288" x2="1202" y1="401.625" y2="401.625"/><polygon fill="#A80036" points="65,426.625,55,430.625,65,434.625,61,430.625" style="stroke: #A80036; stroke-width: 1.0;"/><line style="stroke: #A80036; stroke-width: 1.0;" x1="59" x2="272" y1="430.625" y2="430.625"/><text fill="#000000" font-family="sans-serif" font-size="13" lengthAdjust="spacingAndGlyphs" textLength="146" x="71" y="425.6919">notifyReservedCar(car)</text><line style="stroke: #A80036; stroke-width: 1.0;" x1="283" x2="325" y1="459.8906" y2="459.8906"/><line style="stroke: #A80036; stroke-width: 1.0;" x1="325" x2="325" y1="459.8906" y2="472.8906"/><line style="stroke: #A80036; stroke-width: 1.0;" x1="284" x2="325" y1="472.8906" y2="472.8906"/><polygon fill="#A80036" points="294,468.8906,284,472.8906,294,476.8906,290,472.8906" style="stroke: #A80036; stroke-width: 1.0;"/><text fill="#000000" font-family="sans-serif" font-size="13" lengthAdjust="spacingAndGlyphs" textLength="111" x="290" y="454.8247">startCountdown()</text><polygon fill="#A80036" points="65,482.8906,55,486.8906,65,490.8906,61,486.8906" style="stroke: #A80036; stroke-width: 1.0;"/><line style="stroke: #A80036; stroke-width: 1.0;" x1="59" x2="272" y1="486.8906" y2="486.8906"/></g></svg>