<?xml version="1.0" encoding="UTF-8" standalone="no"?><svg xmlns="http://www.w3.org/2000/svg" xmlns:xlink="http://www.w3.org/1999/xlink" contentScriptType="application/ecmascript" contentStyleType="text/css" height="455px" preserveAspectRatio="none" style="width:1296px;height:455px;" version="1.1" viewBox="0 0 1296 455" width="1296px" zoomAndPan="magnify"><defs><filter height="300%" id="ftzvnr1" width="300%" x="-1" y="-1"><feGaussianBlur result="blurOut" stdDeviation="2.0"/><feColorMatrix in="blurOut" result="blurOut2" type="matrix" values="0 0 0 0 0 0 0 0 0 0 0 0 0 0 0 0 0 0 .4 0"/><feOffset dx="4.0" dy="4.0" in="blurOut2" result="blurOut3"/><feBlend in="SourceGraphic" in2="blurOut3" mode="normal"/></filter></defs><g><rect fill="#FFFFFF" filter="url(#ftzvnr1)" height="351.0625" style="stroke: #A80036; stroke-width: 1.0;" width="10" x="44" y="48.2969"/><rect fill="#FFFFFF" filter="url(#ftzvnr1)" height="330.0625" style="stroke: #A80036; stroke-width: 1.0;" width="10" x="422" y="69.2969"/><rect fill="#FFFFFF" filter="url(#ftzvnr1)" height="14.1328" style="stroke: #A80036; stroke-width: 1.0;" width="10" x="865" y="98.4297"/><rect fill="#FFFFFF" filter="url(#ftzvnr1)" height="14.1328" style="stroke: #A80036; stroke-width: 1.0;" width="10" x="865" y="141.5625"/><rect fill="#FFFFFF" filter="url(#ftzvnr1)" height="14.1328" style="stroke: #A80036; stroke-width: 1.0;" width="10" x="865" y="184.6953"/><rect fill="#FFFFFF" filter="url(#ftzvnr1)" height="14.1328" style="stroke: #A80036; stroke-width: 1.0;" width="10" x="865" y="356.2266"/><rect fill="#FFFFFF" filter="url(#ftzvnr1)" height="57.2656" style="stroke: #A80036; stroke-width: 1.0;" width="10" x="989.5" y="227.8281"/><rect fill="#FFFFFF" filter="url(#ftzvnr1)" height="14.1328" style="stroke: #A80036; stroke-width: 1.0;" width="10" x="1220.5" y="256.9609"/><line style="stroke: #A80036; stroke-width: 1.0; stroke-dasharray: 5.0,5.0;" x1="49" x2="49" y1="38.2969" y2="417.4922"/><line style="stroke: #A80036; stroke-width: 1.0; stroke-dasharray: 5.0,5.0;" x1="427" x2="427" y1="38.2969" y2="417.4922"/><line style="stroke: #A80036; stroke-width: 1.0; stroke-dasharray: 5.0,5.0;" x1="870" x2="870" y1="38.2969" y2="417.4922"/><line style="stroke: #A80036; stroke-width: 1.0; stroke-dasharray: 5.0,5.0;" x1="994" x2="994" y1="38.2969" y2="417.4922"/><line style="stroke: #A80036; stroke-width: 1.0; stroke-dasharray: 5.0,5.0;" x1="1225" x2="1225" y1="38.2969" y2="417.4922"/><rect fill="#FEFECE" filter="url(#ftzvnr1)" height="30.2969" style="stroke: #A80036; stroke-width: 1.5;" width="78" x="8" y="3"/><text fill="#000000" font-family="sans-serif" font-size="14" lengthAdjust="spacingAndGlyphs" textLength="64" x="15" y="22.9951">clientApp</text><rect fill="#FEFECE" filter="url(#ftzvnr1)" height="30.2969" style="stroke: #A80036; stroke-width: 1.5;" width="78" x="8" y="416.4922"/><text fill="#000000" font-family="sans-serif" font-size="14" lengthAdjust="spacingAndGlyphs" textLength="64" x="15" y="436.4873">clientApp</text><rect fill="#FEFECE" filter="url(#ftzvnr1)" height="30.2969" style="stroke: #A80036; stroke-width: 1.5;" width="112" x="369" y="3"/><text fill="#000000" font-family="sans-serif" font-size="14" lengthAdjust="spacingAndGlyphs" textLength="98" x="376" y="22.9951">userController</text><rect fill="#FEFECE" filter="url(#ftzvnr1)" height="30.2969" style="stroke: #A80036; stroke-width: 1.5;" width="112" x="369" y="416.4922"/><text fill="#000000" font-family="sans-serif" font-size="14" lengthAdjust="spacingAndGlyphs" textLength="98" x="376" y="436.4873">userController</text><rect fill="#FEFECE" filter="url(#ftzvnr1)" height="30.2969" style="stroke: #A80036; stroke-width: 1.5;" width="80" x="828" y="3"/><text fill="#000000" font-family="sans-serif" font-size="14" lengthAdjust="spacingAndGlyphs" textLength="66" x="835" y="22.9951">Database</text><rect fill="#FEFECE" filter="url(#ftzvnr1)" height="30.2969" style="stroke: #A80036; stroke-width: 1.5;" width="80" x="828" y="416.4922"/><text fill="#000000" font-family="sans-serif" font-size="14" lengthAdjust="spacingAndGlyphs" textLength="66" x="835" y="436.4873">Database</text><rect fill="#FEFECE" filter="url(#ftzvnr1)" height="30.2969" style="stroke: #A80036; stroke-width: 1.5;" width="141" x="922" y="3"/><text fill="#000000" font-family="sans-serif" font-size="14" lengthAdjust="spacingAndGlyphs" textLength="127" x="929" y="22.9951">paymentController</text><rect fill="#FEFECE" filter="url(#ftzvnr1)" height="30.2969" style="stroke: #A80036; stroke-width: 1.5;" width="141" x="922" y="416.4922"/><text fill="#000000" font-family="sans-serif" font-size="14" lengthAdjust="spacingAndGlyphs" textLength="127" x="929" y="436.4873">paymentController</text><rect fill="#FEFECE" filter="url(#ftzvnr1)" height="30.2969" style="stroke: #A80036; stroke-width: 1.5;" width="127" x="1160" y="3"/><text fill="#000000" font-family="sans-serif" font-size="14" lengthAdjust="spacingAndGlyphs" textLength="113" x="1167" y="22.9951">paymentHandler</text><rect fill="#FEFECE" filter="url(#ftzvnr1)" height="30.2969" style="stroke: #A80036; stroke-width: 1.5;" width="127" x="1160" y="416.4922"/><text fill="#000000" font-family="sans-serif" font-size="14" lengthAdjust="spacingAndGlyphs" textLength="113" x="1167" y="436.4873">paymentHandler</text><rect fill="#FFFFFF" filter="url(#ftzvnr1)" height="351.0625" style="stroke: #A80036; stroke-width: 1.0;" width="10" x="44" y="48.2969"/><rect fill="#FFFFFF" filter="url(#ftzvnr1)" height="330.0625" style="stroke: #A80036; stroke-width: 1.0;" width="10" x="422" y="69.2969"/><rect fill="#FFFFFF" filter="url(#ftzvnr1)" height="14.1328" style="stroke: #A80036; stroke-width: 1.0;" width="10" x="865" y="98.4297"/><rect fill="#FFFFFF" filter="url(#ftzvnr1)" height="14.1328" style="stroke: #A80036; stroke-width: 1.0;" width="10" x="865" y="141.5625"/><rect fill="#FFFFFF" filter="url(#ftzvnr1)" height="14.1328" style="stroke: #A80036; stroke-width: 1.0;" width="10" x="865" y="184.6953"/><rect fill="#FFFFFF" filter="url(#ftzvnr1)" height="14.1328" style="stroke: #A80036; stroke-width: 1.0;" width="10" x="865" y="356.2266"/><rect fill="#FFFFFF" filter="url(#ftzvnr1)" height="57.2656" style="stroke: #A80036; stroke-width: 1.0;" width="10" x="989.5" y="227.8281"/><rect fill="#FFFFFF" filter="url(#ftzvnr1)" height="14.1328" style="stroke: #A80036; stroke-width: 1.0;" width="10" x="1220.5" y="256.9609"/><polygon fill="#A80036" points="410,65.2969,420,69.2969,410,73.2969,414,69.2969" style="stroke: #A80036; stroke-width: 1.0;"/><line style="stroke: #A80036; stroke-width: 1.0;" x1="54" x2="416" y1="69.2969" y2="69.2969"/><text fill="#000000" font-family="sans-serif" font-size="13" lengthAdjust="spacingAndGlyphs" textLength="349" x="61" y="64.3638">signUp(username,paymentInfo,drivingLicenceNumber)</text><polygon fill="#A80036" points="853,94.4297,863,98.4297,853,102.4297,857,98.4297" style="stroke: #A80036; stroke-width: 1.0;"/><line style="stroke: #A80036; stroke-width: 1.0;" x1="432" x2="859" y1="98.4297" y2="98.4297"/><text fill="#000000" font-family="sans-serif" font-size="13" lengthAdjust="spacingAndGlyphs" textLength="168" x="439" y="93.4966">checkIfPresent(username)</text><polygon fill="#A80036" points="443,108.5625,433,112.5625,443,116.5625,439,112.5625" style="stroke: #A80036; stroke-width: 1.0;"/><line style="stroke: #A80036; stroke-width: 1.0;" x1="437" x2="869" y1="112.5625" y2="112.5625"/><polygon fill="#A80036" points="853,137.5625,863,141.5625,853,145.5625,857,141.5625" style="stroke: #A80036; stroke-width: 1.0;"/><line style="stroke: #A80036; stroke-width: 1.0;" x1="432" x2="859" y1="141.5625" y2="141.5625"/><text fill="#000000" font-family="sans-serif" font-size="13" lengthAdjust="spacingAndGlyphs" textLength="245" x="439" y="136.6294">checkIfPresent(drivingLicenceNumber)</text><polygon fill="#A80036" points="443,151.6953,433,155.6953,443,159.6953,439,155.6953" style="stroke: #A80036; stroke-width: 1.0;"/><line style="stroke: #A80036; stroke-width: 1.0;" x1="437" x2="869" y1="155.6953" y2="155.6953"/><polygon fill="#A80036" points="853,180.6953,863,184.6953,853,188.6953,857,184.6953" style="stroke: #A80036; stroke-width: 1.0;"/><line style="stroke: #A80036; stroke-width: 1.0;" x1="432" x2="859" y1="184.6953" y2="184.6953"/><text fill="#000000" font-family="sans-serif" font-size="13" lengthAdjust="spacingAndGlyphs" textLength="183" x="439" y="179.7622">checkIfPresent(paymentInfo)</text><polygon fill="#A80036" points="443,194.8281,433,198.8281,443,202.8281,439,198.8281" style="stroke: #A80036; stroke-width: 1.0;"/><line style="stroke: #A80036; stroke-width: 1.0;" x1="437" x2="869" y1="198.8281" y2="198.8281"/><polygon fill="#A80036" points="977.5,223.8281,987.5,227.8281,977.5,231.8281,981.5,227.8281" style="stroke: #A80036; stroke-width: 1.0;"/><line style="stroke: #A80036; stroke-width: 1.0;" x1="432" x2="983.5" y1="227.8281" y2="227.8281"/><text fill="#000000" font-family="sans-serif" font-size="13" lengthAdjust="spacingAndGlyphs" textLength="202" x="439" y="222.895">checkIfConsistent(paymentInfo)</text><polygon fill="#A80036" points="1208.5,252.9609,1218.5,256.9609,1208.5,260.9609,1212.5,256.9609" style="stroke: #A80036; stroke-width: 1.0;"/><line style="stroke: #A80036; stroke-width: 1.0;" x1="999.5" x2="1214.5" y1="256.9609" y2="256.9609"/><text fill="#000000" font-family="sans-serif" font-size="13" lengthAdjust="spacingAndGlyphs" textLength="202" x="1006.5" y="252.0278">checkIfConsistent(paymentInfo)</text><polygon fill="#A80036" points="1010.5,267.0938,1000.5,271.0938,1010.5,275.0938,1006.5,271.0938" style="stroke: #A80036; stroke-width: 1.0;"/><line style="stroke: #A80036; stroke-width: 1.0;" x1="1004.5" x2="1224.5" y1="271.0938" y2="271.0938"/><polygon fill="#A80036" points="443,281.0938,433,285.0938,443,289.0938,439,285.0938" style="stroke: #A80036; stroke-width: 1.0;"/><line style="stroke: #A80036; stroke-width: 1.0;" x1="437" x2="993.5" y1="285.0938" y2="285.0938"/><line style="stroke: #A80036; stroke-width: 1.0;" x1="432" x2="474" y1="314.2266" y2="314.2266"/><line style="stroke: #A80036; stroke-width: 1.0;" x1="474" x2="474" y1="314.2266" y2="327.2266"/><line style="stroke: #A80036; stroke-width: 1.0;" x1="433" x2="474" y1="327.2266" y2="327.2266"/><polygon fill="#A80036" points="443,323.2266,433,327.2266,443,331.2266,439,327.2266" style="stroke: #A80036; stroke-width: 1.0;"/><text fill="#000000" font-family="sans-serif" font-size="13" lengthAdjust="spacingAndGlyphs" textLength="257" x="439" y="309.1606">password = generatePassword() : String</text><polygon fill="#A80036" points="853,352.2266,863,356.2266,853,360.2266,857,356.2266" style="stroke: #A80036; stroke-width: 1.0;"/><line style="stroke: #A80036; stroke-width: 1.0;" x1="432" x2="859" y1="356.2266" y2="356.2266"/><text fill="#000000" font-family="sans-serif" font-size="13" lengthAdjust="spacingAndGlyphs" textLength="414" x="439" y="351.2935">store(username, password, paymentInfo, drivingLicenceNumber)</text><polygon fill="#A80036" points="443,366.3594,433,370.3594,443,374.3594,439,370.3594" style="stroke: #A80036; stroke-width: 1.0;"/><line style="stroke: #A80036; stroke-width: 1.0;" x1="437" x2="869" y1="370.3594" y2="370.3594"/><polygon fill="#A80036" points="60,395.3594,50,399.3594,60,403.3594,56,399.3594" style="stroke: #A80036; stroke-width: 1.0;"/><line style="stroke: #A80036; stroke-width: 1.0;" x1="54" x2="426" y1="399.3594" y2="399.3594"/><text fill="#000000" font-family="sans-serif" font-size="13" lengthAdjust="spacingAndGlyphs" textLength="101" x="66" y="394.4263">send(password)</text></g></svg>