<?xml version="1.0" encoding="UTF-8" standalone="no"?><svg xmlns="http://www.w3.org/2000/svg" xmlns:xlink="http://www.w3.org/1999/xlink" contentScriptType="application/ecmascript" contentStyleType="text/css" height="964px" preserveAspectRatio="none" style="width:1282px;height:964px;" version="1.1" viewBox="0 0 1282 964" width="1282px" zoomAndPan="magnify"><defs><filter height="300%" id="fhtspw6" width="300%" x="-1" y="-1"><feGaussianBlur result="blurOut" stdDeviation="2.0"/><feColorMatrix in="blurOut" result="blurOut2" type="matrix" values="0 0 0 0 0 0 0 0 0 0 0 0 0 0 0 0 0 0 .4 0"/><feOffset dx="4.0" dy="4.0" in="blurOut2" result="blurOut3"/><feBlend in="SourceGraphic" in2="blurOut3" mode="normal"/></filter></defs><g><rect fill="#FFFFFF" filter="url(#fhtspw6)" height="143.5313" style="stroke: #A80036; stroke-width: 1.0;" width="10" x="59" y="283.0938"/><rect fill="#FFFFFF" filter="url(#fhtspw6)" height="158.5313" style="stroke: #A80036; stroke-width: 1.0;" width="10" x="298" y="93.4297"/><rect fill="#FFFFFF" filter="url(#fhtspw6)" height="143.5313" style="stroke: #A80036; stroke-width: 1.0;" width="10" x="298" y="283.0938"/><rect fill="#FFFFFF" filter="url(#fhtspw6)" height="430.4609" style="stroke: #A80036; stroke-width: 1.0;" width="10" x="298" y="486.8906"/><rect fill="#FFFFFF" filter="url(#fhtspw6)" height="57.2656" style="stroke: #A80036; stroke-width: 1.0;" width="10" x="548" y="122.5625"/><rect fill="#FFFFFF" filter="url(#fhtspw6)" height="14.1328" style="stroke: #A80036; stroke-width: 1.0;" width="10" x="548" y="312.2266"/><rect fill="#FFFFFF" filter="url(#fhtspw6)" height="29.1328" style="stroke: #A80036; stroke-width: 1.0;" width="10" x="548" y="397.4922"/><rect fill="#FFFFFF" filter="url(#fhtspw6)" height="226.7969" style="stroke: #A80036; stroke-width: 1.0;" width="10" x="548" y="602.2891"/><rect fill="#FFFFFF" filter="url(#fhtspw6)" height="14.1328" style="stroke: #A80036; stroke-width: 1.0;" width="10" x="740" y="151.6953"/><rect fill="#FFFFFF" filter="url(#fhtspw6)" height="14.1328" style="stroke: #A80036; stroke-width: 1.0;" width="10" x="740" y="545.1563"/><rect fill="#FFFFFF" filter="url(#fhtspw6)" height="14.1328" style="stroke: #A80036; stroke-width: 1.0;" width="10" x="740" y="800.9531"/><rect fill="#FFFFFF" filter="url(#fhtspw6)" height="14.1328" style="stroke: #A80036; stroke-width: 1.0;" width="10" x="864.5" y="208.8281"/><rect fill="#FFFFFF" filter="url(#fhtspw6)" height="14.1328" style="stroke: #A80036; stroke-width: 1.0;" width="10" x="864.5" y="858.0859"/><rect fill="#FFFFFF" filter="url(#fhtspw6)" height="140.5313" style="stroke: #A80036; stroke-width: 1.0;" width="10" x="993" y="631.4219"/><rect fill="#FFFFFF" filter="url(#fhtspw6)" height="57.2656" style="stroke: #A80036; stroke-width: 1.0;" width="10" x="1200" y="516.0234"/><rect fill="#FFFFFF" filter="url(#fhtspw6)" height="379.4609" style="stroke: #000000; stroke-width: 2.0;" width="1041" x="13" y="55.2969"/><rect fill="#FFFFFF" height="174.6641" style="stroke: none; stroke-width: 1.0;" width="1041" x="13" y="260.0938"/><rect fill="#FFFFFF" filter="url(#fhtspw6)" height="460.5938" style="stroke: #000000; stroke-width: 2.0;" width="1260" x="13" y="448.7578"/><line style="stroke: #A80036; stroke-width: 1.0; stroke-dasharray: 5.0,5.0;" x1="64" x2="64" y1="38.2969" y2="926.3516"/><line style="stroke: #A80036; stroke-width: 1.0; stroke-dasharray: 5.0,5.0;" x1="303" x2="303" y1="38.2969" y2="926.3516"/><line style="stroke: #A80036; stroke-width: 1.0; stroke-dasharray: 5.0,5.0;" x1="553" x2="553" y1="38.2969" y2="926.3516"/><line style="stroke: #A80036; stroke-width: 1.0; stroke-dasharray: 5.0,5.0;" x1="745" x2="745" y1="38.2969" y2="926.3516"/><line style="stroke: #A80036; stroke-width: 1.0; stroke-dasharray: 5.0,5.0;" x1="869" x2="869" y1="38.2969" y2="926.3516"/><line style="stroke: #A80036; stroke-width: 1.0; stroke-dasharray: 5.0,5.0;" x1="998" x2="998" y1="38.2969" y2="926.3516"/><line style="stroke: #A80036; stroke-width: 1.0; stroke-dasharray: 5.0,5.0;" x1="1205" x2="1205" y1="38.2969" y2="926.3516"/><rect fill="#FEFECE" filter="url(#fhtspw6)" height="30.2969" style="stroke: #A80036; stroke-width: 1.5;" width="78" x="23" y="3"/><text fill="#000000" font-family="sans-serif" font-size="14" lengthAdjust="spacingAndGlyphs" textLength="64" x="30" y="22.9951">clientApp</text><rect fill="#FEFECE" filter="url(#fhtspw6)" height="30.2969" style="stroke: #A80036; stroke-width: 1.5;" width="78" x="23" y="925.3516"/><text fill="#000000" font-family="sans-serif" font-size="14" lengthAdjust="spacingAndGlyphs" textLength="64" x="30" y="945.3467">clientApp</text><rect fill="#FEFECE" filter="url(#fhtspw6)" height="30.2969" style="stroke: #A80036; stroke-width: 1.5;" width="158" x="222" y="3"/><text fill="#000000" font-family="sans-serif" font-size="14" lengthAdjust="spacingAndGlyphs" textLength="144" x="229" y="22.9951">reservationController</text><rect fill="#FEFECE" filter="url(#fhtspw6)" height="30.2969" style="stroke: #A80036; stroke-width: 1.5;" width="158" x="222" y="925.3516"/><text fill="#000000" font-family="sans-serif" font-size="14" lengthAdjust="spacingAndGlyphs" textLength="144" x="229" y="945.3467">reservationController</text><rect fill="#FEFECE" filter="url(#fhtspw6)" height="30.2969" style="stroke: #A80036; stroke-width: 1.5;" width="102" x="500" y="3"/><text fill="#000000" font-family="sans-serif" font-size="14" lengthAdjust="spacingAndGlyphs" textLength="88" x="507" y="22.9951">carController</text><rect fill="#FEFECE" filter="url(#fhtspw6)" height="30.2969" style="stroke: #A80036; stroke-width: 1.5;" width="102" x="500" y="925.3516"/><text fill="#000000" font-family="sans-serif" font-size="14" lengthAdjust="spacingAndGlyphs" textLength="88" x="507" y="945.3467">carController</text><rect fill="#FEFECE" filter="url(#fhtspw6)" height="30.2969" style="stroke: #A80036; stroke-width: 1.5;" width="80" x="703" y="3"/><text fill="#000000" font-family="sans-serif" font-size="14" lengthAdjust="spacingAndGlyphs" textLength="66" x="710" y="22.9951">Database</text><rect fill="#FEFECE" filter="url(#fhtspw6)" height="30.2969" style="stroke: #A80036; stroke-width: 1.5;" width="80" x="703" y="925.3516"/><text fill="#000000" font-family="sans-serif" font-size="14" lengthAdjust="spacingAndGlyphs" textLength="66" x="710" y="945.3467">Database</text><rect fill="#FEFECE" filter="url(#fhtspw6)" height="30.2969" style="stroke: #A80036; stroke-width: 1.5;" width="141" x="797" y="3"/><text fill="#000000" font-family="sans-serif" font-size="14" lengthAdjust="spacingAndGlyphs" textLength="127" x="804" y="22.9951">paymentController</text><rect fill="#FEFECE" filter="url(#fhtspw6)" height="30.2969" style="stroke: #A80036; stroke-width: 1.5;" width="141" x="797" y="925.3516"/><text fill="#000000" font-family="sans-serif" font-size="14" lengthAdjust="spacingAndGlyphs" textLength="127" x="804" y="945.3467">paymentController</text><rect fill="#FEFECE" filter="url(#fhtspw6)" height="30.2969" style="stroke: #A80036; stroke-width: 1.5;" width="88" x="952" y="3"/><text fill="#000000" font-family="sans-serif" font-size="14" lengthAdjust="spacingAndGlyphs" textLength="74" x="959" y="22.9951">carHandler</text><rect fill="#FEFECE" filter="url(#fhtspw6)" height="30.2969" style="stroke: #A80036; stroke-width: 1.5;" width="88" x="952" y="925.3516"/><text fill="#000000" font-family="sans-serif" font-size="14" lengthAdjust="spacingAndGlyphs" textLength="74" x="959" y="945.3467">carHandler</text><rect fill="#FEFECE" filter="url(#fhtspw6)" height="30.2969" style="stroke: #A80036; stroke-width: 1.5;" width="112" x="1147" y="3"/><text fill="#000000" font-family="sans-serif" font-size="14" lengthAdjust="spacingAndGlyphs" textLength="98" x="1154" y="22.9951">userController</text><rect fill="#FEFECE" filter="url(#fhtspw6)" height="30.2969" style="stroke: #A80036; stroke-width: 1.5;" width="112" x="1147" y="925.3516"/><text fill="#000000" font-family="sans-serif" font-size="14" lengthAdjust="spacingAndGlyphs" textLength="98" x="1154" y="945.3467">userController</text><rect fill="#FFFFFF" filter="url(#fhtspw6)" height="143.5313" style="stroke: #A80036; stroke-width: 1.0;" width="10" x="59" y="283.0938"/><rect fill="#FFFFFF" filter="url(#fhtspw6)" height="158.5313" style="stroke: #A80036; stroke-width: 1.0;" width="10" x="298" y="93.4297"/><rect fill="#FFFFFF" filter="url(#fhtspw6)" height="143.5313" style="stroke: #A80036; stroke-width: 1.0;" width="10" x="298" y="283.0938"/><rect fill="#FFFFFF" filter="url(#fhtspw6)" height="430.4609" style="stroke: #A80036; stroke-width: 1.0;" width="10" x="298" y="486.8906"/><rect fill="#FFFFFF" filter="url(#fhtspw6)" height="57.2656" style="stroke: #A80036; stroke-width: 1.0;" width="10" x="548" y="122.5625"/><rect fill="#FFFFFF" filter="url(#fhtspw6)" height="14.1328" style="stroke: #A80036; stroke-width: 1.0;" width="10" x="548" y="312.2266"/><rect fill="#FFFFFF" filter="url(#fhtspw6)" height="29.1328" style="stroke: #A80036; stroke-width: 1.0;" width="10" x="548" y="397.4922"/><rect fill="#FFFFFF" filter="url(#fhtspw6)" height="226.7969" style="stroke: #A80036; stroke-width: 1.0;" width="10" x="548" y="602.2891"/><rect fill="#FFFFFF" filter="url(#fhtspw6)" height="14.1328" style="stroke: #A80036; stroke-width: 1.0;" width="10" x="740" y="151.6953"/><rect fill="#FFFFFF" filter="url(#fhtspw6)" height="14.1328" style="stroke: #A80036; stroke-width: 1.0;" width="10" x="740" y="545.1563"/><rect fill="#FFFFFF" filter="url(#fhtspw6)" height="14.1328" style="stroke: #A80036; stroke-width: 1.0;" width="10" x="740" y="800.9531"/><rect fill="#FFFFFF" filter="url(#fhtspw6)" height="14.1328" style="stroke: #A80036; stroke-width: 1.0;" width="10" x="864.5" y="208.8281"/><rect fill="#FFFFFF" filter="url(#fhtspw6)" height="14.1328" style="stroke: #A80036; stroke-width: 1.0;" width="10" x="864.5" y="858.0859"/><rect fill="#FFFFFF" filter="url(#fhtspw6)" height="140.5313" style="stroke: #A80036; stroke-width: 1.0;" width="10" x="993" y="631.4219"/><rect fill="#FFFFFF" filter="url(#fhtspw6)" height="57.2656" style="stroke: #A80036; stroke-width: 1.0;" width="10" x="1200" y="516.0234"/><rect fill="none" height="379.4609" style="stroke: #000000; stroke-width: 2.0;" width="1041" x="13" y="55.2969"/><polygon fill="#EEEEEE" points="13,55.2969,77,55.2969,77,62.2969,67,72.2969,13,72.2969,13,55.2969" style="stroke: #000000; stroke-width: 2.0;"/><text fill="#000000" font-family="sans-serif" font-size="13" font-weight="bold" lengthAdjust="spacingAndGlyphs" textLength="19" x="28" y="68.3638">alt</text><text fill="#000000" font-family="sans-serif" font-size="11" font-weight="bold" lengthAdjust="spacingAndGlyphs" textLength="113" x="92" y="67.5073">[Timeout expires]</text><polygon fill="#A80036" points="75,89.4297,65,93.4297,75,97.4297,71,93.4297" style="stroke: #A80036; stroke-width: 1.0;"/><line style="stroke: #A80036; stroke-width: 1.0;" x1="69" x2="297" y1="93.4297" y2="93.4297"/><text fill="#000000" font-family="sans-serif" font-size="13" lengthAdjust="spacingAndGlyphs" textLength="95" x="81" y="88.4966">notify(timeout)</text><polygon fill="#A80036" points="536,118.5625,546,122.5625,536,126.5625,540,122.5625" style="stroke: #A80036; stroke-width: 1.0;"/><line style="stroke: #A80036; stroke-width: 1.0;" x1="308" x2="542" y1="122.5625" y2="122.5625"/><text fill="#000000" font-family="sans-serif" font-size="13" lengthAdjust="spacingAndGlyphs" textLength="80" x="315" y="117.6294">timeout(car)</text><polygon fill="#A80036" points="728,147.6953,738,151.6953,728,155.6953,732,151.6953" style="stroke: #A80036; stroke-width: 1.0;"/><line style="stroke: #A80036; stroke-width: 1.0;" x1="558" x2="734" y1="151.6953" y2="151.6953"/><text fill="#000000" font-family="sans-serif" font-size="13" lengthAdjust="spacingAndGlyphs" textLength="163" x="565" y="146.7622">setState(car, AVAILABLE)</text><polygon fill="#A80036" points="569,161.8281,559,165.8281,569,169.8281,565,165.8281" style="stroke: #A80036; stroke-width: 1.0;"/><line style="stroke: #A80036; stroke-width: 1.0;" x1="563" x2="744" y1="165.8281" y2="165.8281"/><polygon fill="#A80036" points="319,175.8281,309,179.8281,319,183.8281,315,179.8281" style="stroke: #A80036; stroke-width: 1.0;"/><line style="stroke: #A80036; stroke-width: 1.0;" x1="313" x2="552" y1="179.8281" y2="179.8281"/><polygon fill="#A80036" points="852.5,204.8281,862.5,208.8281,852.5,212.8281,856.5,208.8281" style="stroke: #A80036; stroke-width: 1.0;"/><line style="stroke: #A80036; stroke-width: 1.0;" x1="308" x2="858.5" y1="208.8281" y2="208.8281"/><text fill="#000000" font-family="sans-serif" font-size="13" lengthAdjust="spacingAndGlyphs" textLength="191" x="315" y="203.895">submitInfo(amount, myClient)</text><polygon fill="#A80036" points="319,218.9609,309,222.9609,319,226.9609,315,222.9609" style="stroke: #A80036; stroke-width: 1.0;"/><line style="stroke: #A80036; stroke-width: 1.0;" x1="313" x2="868.5" y1="222.9609" y2="222.9609"/><polygon fill="#A80036" points="75,247.9609,65,251.9609,75,255.9609,71,251.9609" style="stroke: #A80036; stroke-width: 1.0;"/><line style="stroke: #A80036; stroke-width: 1.0;" x1="69" x2="302" y1="251.9609" y2="251.9609"/><text fill="#000000" font-family="sans-serif" font-size="13" lengthAdjust="spacingAndGlyphs" textLength="144" x="81" y="247.0278">notifyAvailableCar(car)</text><line style="stroke: #000000; stroke-width: 1.0; stroke-dasharray: 2.0,2.0;" x1="13" x2="1054" y1="261.0938" y2="261.0938"/><polygon fill="#A80036" points="286,279.0938,296,283.0938,286,287.0938,290,283.0938" style="stroke: #A80036; stroke-width: 1.0;"/><line style="stroke: #A80036; stroke-width: 1.0;" x1="69" x2="292" y1="283.0938" y2="283.0938"/><text fill="#000000" font-family="sans-serif" font-size="13" lengthAdjust="spacingAndGlyphs" textLength="215" x="76" y="278.1606">unlockRequest(car, clientPosition)</text><polygon fill="#A80036" points="536,308.2266,546,312.2266,536,316.2266,540,312.2266" style="stroke: #A80036; stroke-width: 1.0;"/><line style="stroke: #A80036; stroke-width: 1.0;" x1="308" x2="542" y1="312.2266" y2="312.2266"/><text fill="#000000" font-family="sans-serif" font-size="13" lengthAdjust="spacingAndGlyphs" textLength="190" x="315" y="307.2935">carPosition = getPosition(car)</text><polygon fill="#A80036" points="319,322.3594,309,326.3594,319,330.3594,315,326.3594" style="stroke: #A80036; stroke-width: 1.0;"/><line style="stroke: #A80036; stroke-width: 1.0;" x1="313" x2="552" y1="326.3594" y2="326.3594"/><line style="stroke: #A80036; stroke-width: 1.0;" x1="308" x2="350" y1="355.4922" y2="355.4922"/><line style="stroke: #A80036; stroke-width: 1.0;" x1="350" x2="350" y1="355.4922" y2="368.4922"/><line style="stroke: #A80036; stroke-width: 1.0;" x1="309" x2="350" y1="368.4922" y2="368.4922"/><polygon fill="#A80036" points="319,364.4922,309,368.4922,319,372.4922,315,368.4922" style="stroke: #A80036; stroke-width: 1.0;"/><text fill="#000000" font-family="sans-serif" font-size="13" lengthAdjust="spacingAndGlyphs" textLength="226" x="315" y="350.4263">distance(carPosition, clientPosition)</text><polygon fill="#A80036" points="536,393.4922,546,397.4922,536,401.4922,540,397.4922" style="stroke: #A80036; stroke-width: 1.0;"/><line style="stroke: #A80036; stroke-width: 1.0;" x1="308" x2="542" y1="397.4922" y2="397.4922"/><text fill="#000000" font-family="sans-serif" font-size="13" lengthAdjust="spacingAndGlyphs" textLength="123" x="315" y="392.5591">unlockRequest(car)</text><polygon fill="#A80036" points="986,422.625,996,426.625,986,430.625,990,426.625" style="stroke: #A80036; stroke-width: 1.0;"/><line style="stroke: #A80036; stroke-width: 1.0;" x1="553" x2="992" y1="426.625" y2="426.625"/><text fill="#000000" font-family="sans-serif" font-size="13" lengthAdjust="spacingAndGlyphs" textLength="71" x="560" y="421.6919">unlock(car)</text><rect fill="none" height="460.5938" style="stroke: #000000; stroke-width: 2.0;" width="1260" x="13" y="448.7578"/><polygon fill="#EEEEEE" points="13,448.7578,83,448.7578,83,455.7578,73,465.7578,13,465.7578,13,448.7578" style="stroke: #000000; stroke-width: 2.0;"/><text fill="#000000" font-family="sans-serif" font-size="13" font-weight="bold" lengthAdjust="spacingAndGlyphs" textLength="25" x="28" y="461.8247">opt</text><text fill="#000000" font-family="sans-serif" font-size="11" font-weight="bold" lengthAdjust="spacingAndGlyphs" textLength="145" x="98" y="460.9683">[reservation canceled]</text><polygon fill="#A80036" points="286,482.8906,296,486.8906,286,490.8906,290,486.8906" style="stroke: #A80036; stroke-width: 1.0;"/><line style="stroke: #A80036; stroke-width: 1.0;" x1="64" x2="292" y1="486.8906" y2="486.8906"/><text fill="#000000" font-family="sans-serif" font-size="13" lengthAdjust="spacingAndGlyphs" textLength="210" x="71" y="481.9575">cancelReservation(myClient, car)</text><polygon fill="#A80036" points="1188,512.0234,1198,516.0234,1188,520.0234,1192,516.0234" style="stroke: #A80036; stroke-width: 1.0;"/><line style="stroke: #A80036; stroke-width: 1.0;" x1="308" x2="1194" y1="516.0234" y2="516.0234"/><text fill="#000000" font-family="sans-serif" font-size="13" lengthAdjust="spacingAndGlyphs" textLength="197" x="315" y="511.0903">checkIfReserved(myClient, car)</text><polygon fill="#A80036" points="761,541.1563,751,545.1563,761,549.1563,757,545.1563" style="stroke: #A80036; stroke-width: 1.0;"/><line style="stroke: #A80036; stroke-width: 1.0;" x1="755" x2="1199" y1="545.1563" y2="545.1563"/><text fill="#000000" font-family="sans-serif" font-size="13" lengthAdjust="spacingAndGlyphs" textLength="197" x="767" y="540.2231">checkIfReserved(myClient, car)</text><polygon fill="#A80036" points="1188,555.2891,1198,559.2891,1188,563.2891,1192,559.2891" style="stroke: #A80036; stroke-width: 1.0;"/><line style="stroke: #A80036; stroke-width: 1.0;" x1="745" x2="1194" y1="559.2891" y2="559.2891"/><polygon fill="#A80036" points="319,569.2891,309,573.2891,319,577.2891,315,573.2891" style="stroke: #A80036; stroke-width: 1.0;"/><line style="stroke: #A80036; stroke-width: 1.0;" x1="313" x2="1204" y1="573.2891" y2="573.2891"/><polygon fill="#A80036" points="536,598.2891,546,602.2891,536,606.2891,540,602.2891" style="stroke: #A80036; stroke-width: 1.0;"/><line style="stroke: #A80036; stroke-width: 1.0;" x1="308" x2="542" y1="602.2891" y2="602.2891"/><text fill="#000000" font-family="sans-serif" font-size="13" lengthAdjust="spacingAndGlyphs" textLength="122" x="315" y="597.356">setToAvailable(car)</text><polygon fill="#A80036" points="981,627.4219,991,631.4219,981,635.4219,985,631.4219" style="stroke: #A80036; stroke-width: 1.0;"/><line style="stroke: #A80036; stroke-width: 1.0;" x1="558" x2="987" y1="631.4219" y2="631.4219"/><text fill="#000000" font-family="sans-serif" font-size="13" lengthAdjust="spacingAndGlyphs" textLength="55" x="565" y="626.4888">lock(car)</text><line style="stroke: #A80036; stroke-width: 1.0;" x1="1003" x2="1045" y1="660.6875" y2="660.6875"/><line style="stroke: #A80036; stroke-width: 1.0;" x1="1045" x2="1045" y1="660.6875" y2="673.6875"/><line style="stroke: #A80036; stroke-width: 1.0;" x1="1004" x2="1045" y1="673.6875" y2="673.6875"/><polygon fill="#A80036" points="1014,669.6875,1004,673.6875,1014,677.6875,1010,673.6875" style="stroke: #A80036; stroke-width: 1.0;"/><text fill="#000000" font-family="sans-serif" font-size="13" lengthAdjust="spacingAndGlyphs" textLength="183" x="1010" y="655.6216">waitForPassengerToGetOut()</text><line style="stroke: #A80036; stroke-width: 1.0;" x1="1003" x2="1045" y1="702.8203" y2="702.8203"/><line style="stroke: #A80036; stroke-width: 1.0;" x1="1045" x2="1045" y1="702.8203" y2="715.8203"/><line style="stroke: #A80036; stroke-width: 1.0;" x1="1004" x2="1045" y1="715.8203" y2="715.8203"/><polygon fill="#A80036" points="1014,711.8203,1004,715.8203,1014,719.8203,1010,715.8203" style="stroke: #A80036; stroke-width: 1.0;"/><text fill="#000000" font-family="sans-serif" font-size="13" lengthAdjust="spacingAndGlyphs" textLength="55" x="1010" y="697.7544">lock(car)</text><line style="stroke: #A80036; stroke-width: 1.0;" x1="1003" x2="1045" y1="744.9531" y2="744.9531"/><line style="stroke: #A80036; stroke-width: 1.0;" x1="1045" x2="1045" y1="744.9531" y2="757.9531"/><line style="stroke: #A80036; stroke-width: 1.0;" x1="1004" x2="1045" y1="757.9531" y2="757.9531"/><polygon fill="#A80036" points="1014,753.9531,1004,757.9531,1014,761.9531,1010,757.9531" style="stroke: #A80036; stroke-width: 1.0;"/><text fill="#000000" font-family="sans-serif" font-size="13" lengthAdjust="spacingAndGlyphs" textLength="102" x="1010" y="739.8872">setToAvailable()</text><polygon fill="#A80036" points="569,767.9531,559,771.9531,569,775.9531,565,771.9531" style="stroke: #A80036; stroke-width: 1.0;"/><line style="stroke: #A80036; stroke-width: 1.0;" x1="563" x2="997" y1="771.9531" y2="771.9531"/><polygon fill="#A80036" points="728,796.9531,738,800.9531,728,804.9531,732,800.9531" style="stroke: #A80036; stroke-width: 1.0;"/><line style="stroke: #A80036; stroke-width: 1.0;" x1="558" x2="734" y1="800.9531" y2="800.9531"/><text fill="#000000" font-family="sans-serif" font-size="13" lengthAdjust="spacingAndGlyphs" textLength="163" x="565" y="796.02">setState(car, AVAILABLE)</text><polygon fill="#A80036" points="569,811.0859,559,815.0859,569,819.0859,565,815.0859" style="stroke: #A80036; stroke-width: 1.0;"/><line style="stroke: #A80036; stroke-width: 1.0;" x1="563" x2="744" y1="815.0859" y2="815.0859"/><polygon fill="#A80036" points="319,825.0859,309,829.0859,319,833.0859,315,829.0859" style="stroke: #A80036; stroke-width: 1.0;"/><line style="stroke: #A80036; stroke-width: 1.0;" x1="313" x2="552" y1="829.0859" y2="829.0859"/><polygon fill="#A80036" points="852.5,854.0859,862.5,858.0859,852.5,862.0859,856.5,858.0859" style="stroke: #A80036; stroke-width: 1.0;"/><line style="stroke: #A80036; stroke-width: 1.0;" x1="308" x2="858.5" y1="858.0859" y2="858.0859"/><text fill="#000000" font-family="sans-serif" font-size="13" lengthAdjust="spacingAndGlyphs" textLength="133" x="315" y="853.1528">submitFee(myClient)</text><polygon fill="#A80036" points="319,868.2188,309,872.2188,319,876.2188,315,872.2188" style="stroke: #A80036; stroke-width: 1.0;"/><line style="stroke: #A80036; stroke-width: 1.0;" x1="313" x2="868.5" y1="872.2188" y2="872.2188"/><polygon fill="#A80036" points="75,897.2188,65,901.2188,75,905.2188,71,901.2188" style="stroke: #A80036; stroke-width: 1.0;"/><line style="stroke: #A80036; stroke-width: 1.0;" x1="69" x2="297" y1="901.2188" y2="901.2188"/><text fill="#000000" font-family="sans-serif" font-size="13" lengthAdjust="spacingAndGlyphs" textLength="115" x="81" y="896.2856">notifyFreeCar(car)</text></g></svg>