<?xml version="1.0" encoding="UTF-8" standalone="no"?><svg xmlns="http://www.w3.org/2000/svg" xmlns:xlink="http://www.w3.org/1999/xlink" contentScriptType="application/ecmascript" contentStyleType="text/css" height="1021px" preserveAspectRatio="none" style="width:1282px;height:1021px;" version="1.1" viewBox="0 0 1282 1021" width="1282px" zoomAndPan="magnify"><defs><filter height="300%" id="fdsfwbd" width="300%" x="-1" y="-1"><feGaussianBlur result="blurOut" stdDeviation="2.0"/><feColorMatrix in="blurOut" result="blurOut2" type="matrix" values="0 0 0 0 0 0 0 0 0 0 0 0 0 0 0 0 0 0 .4 0"/><feOffset dx="4.0" dy="4.0" in="blurOut2" result="blurOut3"/><feBlend in="SourceGraphic" in2="blurOut3" mode="normal"/></filter></defs><g><rect fill="#FFFFFF" filter="url(#fdsfwbd)" height="200.7969" style="stroke: #A80036; stroke-width: 1.0;" width="10" x="59" y="283.0938"/><rect fill="#FFFFFF" filter="url(#fdsfwbd)" height="158.5313" style="stroke: #A80036; stroke-width: 1.0;" width="10" x="298" y="93.4297"/><rect fill="#FFFFFF" filter="url(#fdsfwbd)" height="200.7969" style="stroke: #A80036; stroke-width: 1.0;" width="10" x="298" y="283.0938"/><rect fill="#FFFFFF" filter="url(#fdsfwbd)" height="430.4609" style="stroke: #A80036; stroke-width: 1.0;" width="10" x="298" y="544.0234"/><rect fill="#FFFFFF" filter="url(#fdsfwbd)" height="57.2656" style="stroke: #A80036; stroke-width: 1.0;" width="10" x="548" y="122.5625"/><rect fill="#FFFFFF" filter="url(#fdsfwbd)" height="14.1328" style="stroke: #A80036; stroke-width: 1.0;" width="10" x="548" y="312.2266"/><rect fill="#FFFFFF" filter="url(#fdsfwbd)" height="86.3984" style="stroke: #A80036; stroke-width: 1.0;" width="10" x="548" y="397.4922"/><rect fill="#FFFFFF" filter="url(#fdsfwbd)" height="226.7969" style="stroke: #A80036; stroke-width: 1.0;" width="10" x="548" y="659.4219"/><rect fill="#FFFFFF" filter="url(#fdsfwbd)" height="14.1328" style="stroke: #A80036; stroke-width: 1.0;" width="10" x="740" y="151.6953"/><rect fill="#FFFFFF" filter="url(#fdsfwbd)" height="14.1328" style="stroke: #A80036; stroke-width: 1.0;" width="10" x="740" y="469.7578"/><rect fill="#FFFFFF" filter="url(#fdsfwbd)" height="14.1328" style="stroke: #A80036; stroke-width: 1.0;" width="10" x="740" y="602.2891"/><rect fill="#FFFFFF" filter="url(#fdsfwbd)" height="14.1328" style="stroke: #A80036; stroke-width: 1.0;" width="10" x="740" y="858.0859"/><rect fill="#FFFFFF" filter="url(#fdsfwbd)" height="14.1328" style="stroke: #A80036; stroke-width: 1.0;" width="10" x="864.5" y="208.8281"/><rect fill="#FFFFFF" filter="url(#fdsfwbd)" height="14.1328" style="stroke: #A80036; stroke-width: 1.0;" width="10" x="864.5" y="915.2188"/><rect fill="#FFFFFF" filter="url(#fdsfwbd)" height="14.1328" style="stroke: #A80036; stroke-width: 1.0;" width="10" x="993" y="426.625"/><rect fill="#FFFFFF" filter="url(#fdsfwbd)" height="140.5313" style="stroke: #A80036; stroke-width: 1.0;" width="10" x="993" y="688.5547"/><rect fill="#FFFFFF" filter="url(#fdsfwbd)" height="57.2656" style="stroke: #A80036; stroke-width: 1.0;" width="10" x="1200" y="573.1563"/><rect fill="#FFFFFF" filter="url(#fdsfwbd)" height="436.5938" style="stroke: #000000; stroke-width: 2.0;" width="1041" x="13" y="55.2969"/><rect fill="#FFFFFF" height="231.7969" style="stroke: none; stroke-width: 1.0;" width="1041" x="13" y="260.0938"/><rect fill="#FFFFFF" filter="url(#fdsfwbd)" height="460.5938" style="stroke: #000000; stroke-width: 2.0;" width="1260" x="13" y="505.8906"/><line style="stroke: #A80036; stroke-width: 1.0; stroke-dasharray: 5.0,5.0;" x1="64" x2="64" y1="38.2969" y2="983.4844"/><line style="stroke: #A80036; stroke-width: 1.0; stroke-dasharray: 5.0,5.0;" x1="303" x2="303" y1="38.2969" y2="983.4844"/><line style="stroke: #A80036; stroke-width: 1.0; stroke-dasharray: 5.0,5.0;" x1="553" x2="553" y1="38.2969" y2="983.4844"/><line style="stroke: #A80036; stroke-width: 1.0; stroke-dasharray: 5.0,5.0;" x1="745" x2="745" y1="38.2969" y2="983.4844"/><line style="stroke: #A80036; stroke-width: 1.0; stroke-dasharray: 5.0,5.0;" x1="869" x2="869" y1="38.2969" y2="983.4844"/><line style="stroke: #A80036; stroke-width: 1.0; stroke-dasharray: 5.0,5.0;" x1="998" x2="998" y1="38.2969" y2="983.4844"/><line style="stroke: #A80036; stroke-width: 1.0; stroke-dasharray: 5.0,5.0;" x1="1205" x2="1205" y1="38.2969" y2="983.4844"/><rect fill="#FEFECE" filter="url(#fdsfwbd)" height="30.2969" style="stroke: #A80036; stroke-width: 1.5;" width="78" x="23" y="3"/><text fill="#000000" font-family="sans-serif" font-size="14" lengthAdjust="spacingAndGlyphs" textLength="64" x="30" y="22.9951">clientApp</text><rect fill="#FEFECE" filter="url(#fdsfwbd)" height="30.2969" style="stroke: #A80036; stroke-width: 1.5;" width="78" x="23" y="982.4844"/><text fill="#000000" font-family="sans-serif" font-size="14" lengthAdjust="spacingAndGlyphs" textLength="64" x="30" y="1002.4795">clientApp</text><rect fill="#FEFECE" filter="url(#fdsfwbd)" height="30.2969" style="stroke: #A80036; stroke-width: 1.5;" width="158" x="222" y="3"/><text fill="#000000" font-family="sans-serif" font-size="14" lengthAdjust="spacingAndGlyphs" textLength="144" x="229" y="22.9951">reservationController</text><rect fill="#FEFECE" filter="url(#fdsfwbd)" height="30.2969" style="stroke: #A80036; stroke-width: 1.5;" width="158" x="222" y="982.4844"/><text fill="#000000" font-family="sans-serif" font-size="14" lengthAdjust="spacingAndGlyphs" textLength="144" x="229" y="1002.4795">reservationController</text><rect fill="#FEFECE" filter="url(#fdsfwbd)" height="30.2969" style="stroke: #A80036; stroke-width: 1.5;" width="102" x="500" y="3"/><text fill="#000000" font-family="sans-serif" font-size="14" lengthAdjust="spacingAndGlyphs" textLength="88" x="507" y="22.9951">carController</text><rect fill="#FEFECE" filter="url(#fdsfwbd)" height="30.2969" style="stroke: #A80036; stroke-width: 1.5;" width="102" x="500" y="982.4844"/><text fill="#000000" font-family="sans-serif" font-size="14" lengthAdjust="spacingAndGlyphs" textLength="88" x="507" y="1002.4795">carController</text><rect fill="#FEFECE" filter="url(#fdsfwbd)" height="30.2969" style="stroke: #A80036; stroke-width: 1.5;" width="80" x="703" y="3"/><text fill="#000000" font-family="sans-serif" font-size="14" lengthAdjust="spacingAndGlyphs" textLength="66" x="710" y="22.9951">Database</text><rect fill="#FEFECE" filter="url(#fdsfwbd)" height="30.2969" style="stroke: #A80036; stroke-width: 1.5;" width="80" x="703" y="982.4844"/><text fill="#000000" font-family="sans-serif" font-size="14" lengthAdjust="spacingAndGlyphs" textLength="66" x="710" y="1002.4795">Database</text><rect fill="#FEFECE" filter="url(#fdsfwbd)" height="30.2969" style="stroke: #A80036; stroke-width: 1.5;" width="141" x="797" y="3"/><text fill="#000000" font-family="sans-serif" font-size="14" lengthAdjust="spacingAndGlyphs" textLength="127" x="804" y="22.9951">paymentController</text><rect fill="#FEFECE" filter="url(#fdsfwbd)" height="30.2969" style="stroke: #A80036; stroke-width: 1.5;" width="141" x="797" y="982.4844"/><text fill="#000000" font-family="sans-serif" font-size="14" lengthAdjust="spacingAndGlyphs" textLength="127" x="804" y="1002.4795">paymentController</text><rect fill="#FEFECE" filter="url(#fdsfwbd)" height="30.2969" style="stroke: #A80036; stroke-width: 1.5;" width="88" x="952" y="3"/><text fill="#000000" font-family="sans-serif" font-size="14" lengthAdjust="spacingAndGlyphs" textLength="74" x="959" y="22.9951">carHandler</text><rect fill="#FEFECE" filter="url(#fdsfwbd)" height="30.2969" style="stroke: #A80036; stroke-width: 1.5;" width="88" x="952" y="982.4844"/><text fill="#000000" font-family="sans-serif" font-size="14" lengthAdjust="spacingAndGlyphs" textLength="74" x="959" y="1002.4795">carHandler</text><rect fill="#FEFECE" filter="url(#fdsfwbd)" height="30.2969" style="stroke: #A80036; stroke-width: 1.5;" width="112" x="1147" y="3"/><text fill="#000000" font-family="sans-serif" font-size="14" lengthAdjust="spacingAndGlyphs" textLength="98" x="1154" y="22.9951">userController</text><rect fill="#FEFECE" filter="url(#fdsfwbd)" height="30.2969" style="stroke: #A80036; stroke-width: 1.5;" width="112" x="1147" y="982.4844"/><text fill="#000000" font-family="sans-serif" font-size="14" lengthAdjust="spacingAndGlyphs" textLength="98" x="1154" y="1002.4795">userController</text><rect fill="#FFFFFF" filter="url(#fdsfwbd)" height="200.7969" style="stroke: #A80036; stroke-width: 1.0;" width="10" x="59" y="283.0938"/><rect fill="#FFFFFF" filter="url(#fdsfwbd)" height="158.5313" style="stroke: #A80036; stroke-width: 1.0;" width="10" x="298" y="93.4297"/><rect fill="#FFFFFF" filter="url(#fdsfwbd)" height="200.7969" style="stroke: #A80036; stroke-width: 1.0;" width="10" x="298" y="283.0938"/><rect fill="#FFFFFF" filter="url(#fdsfwbd)" height="430.4609" style="stroke: #A80036; stroke-width: 1.0;" width="10" x="298" y="544.0234"/><rect fill="#FFFFFF" filter="url(#fdsfwbd)" height="57.2656" style="stroke: #A80036; stroke-width: 1.0;" width="10" x="548" y="122.5625"/><rect fill="#FFFFFF" filter="url(#fdsfwbd)" height="14.1328" style="stroke: #A80036; stroke-width: 1.0;" width="10" x="548" y="312.2266"/><rect fill="#FFFFFF" filter="url(#fdsfwbd)" height="86.3984" style="stroke: #A80036; stroke-width: 1.0;" width="10" x="548" y="397.4922"/><rect fill="#FFFFFF" filter="url(#fdsfwbd)" height="226.7969" style="stroke: #A80036; stroke-width: 1.0;" width="10" x="548" y="659.4219"/><rect fill="#FFFFFF" filter="url(#fdsfwbd)" height="14.1328" style="stroke: #A80036; stroke-width: 1.0;" width="10" x="740" y="151.6953"/><rect fill="#FFFFFF" filter="url(#fdsfwbd)" height="14.1328" style="stroke: #A80036; stroke-width: 1.0;" width="10" x="740" y="469.7578"/><rect fill="#FFFFFF" filter="url(#fdsfwbd)" height="14.1328" style="stroke: #A80036; stroke-width: 1.0;" width="10" x="740" y="602.2891"/><rect fill="#FFFFFF" filter="url(#fdsfwbd)" height="14.1328" style="stroke: #A80036; stroke-width: 1.0;" width="10" x="740" y="858.0859"/><rect fill="#FFFFFF" filter="url(#fdsfwbd)" height="14.1328" style="stroke: #A80036; stroke-width: 1.0;" width="10" x="864.5" y="208.8281"/><rect fill="#FFFFFF" filter="url(#fdsfwbd)" height="14.1328" style="stroke: #A80036; stroke-width: 1.0;" width="10" x="864.5" y="915.2188"/><rect fill="#FFFFFF" filter="url(#fdsfwbd)" height="14.1328" style="stroke: #A80036; stroke-width: 1.0;" width="10" x="993" y="426.625"/><rect fill="#FFFFFF" filter="url(#fdsfwbd)" height="140.5313" style="stroke: #A80036; stroke-width: 1.0;" width="10" x="993" y="688.5547"/><rect fill="#FFFFFF" filter="url(#fdsfwbd)" height="57.2656" style="stroke: #A80036; stroke-width: 1.0;" width="10" x="1200" y="573.1563"/><rect fill="none" height="436.5938" style="stroke: #000000; stroke-width: 2.0;" width="1041" x="13" y="55.2969"/><polygon fill="#EEEEEE" points="13,55.2969,77,55.2969,77,62.2969,67,72.2969,13,72.2969,13,55.2969" style="stroke: #000000; stroke-width: 2.0;"/><text fill="#000000" font-family="sans-serif" font-size="13" font-weight="bold" lengthAdjust="spacingAndGlyphs" textLength="19" x="28" y="68.3638">alt</text><text fill="#000000" font-family="sans-serif" font-size="11" font-weight="bold" lengthAdjust="spacingAndGlyphs" textLength="113" x="92" y="67.5073">[Timeout expires]</text><polygon fill="#A80036" points="75,89.4297,65,93.4297,75,97.4297,71,93.4297" style="stroke: #A80036; stroke-width: 1.0;"/><line style="stroke: #A80036; stroke-width: 1.0;" x1="69" x2="297" y1="93.4297" y2="93.4297"/><text fill="#000000" font-family="sans-serif" font-size="13" lengthAdjust="spacingAndGlyphs" textLength="95" x="81" y="88.4966">notify(timeout)</text><polygon fill="#A80036" points="536,118.5625,546,122.5625,536,126.5625,540,122.5625" style="stroke: #A80036; stroke-width: 1.0;"/><line style="stroke: #A80036; stroke-width: 1.0;" x1="308" x2="542" y1="122.5625" y2="122.5625"/><text fill="#000000" font-family="sans-serif" font-size="13" lengthAdjust="spacingAndGlyphs" textLength="80" x="315" y="117.6294">timeout(car)</text><polygon fill="#A80036" points="728,147.6953,738,151.6953,728,155.6953,732,151.6953" style="stroke: #A80036; stroke-width: 1.0;"/><line style="stroke: #A80036; stroke-width: 1.0;" x1="558" x2="734" y1="151.6953" y2="151.6953"/><text fill="#000000" font-family="sans-serif" font-size="13" lengthAdjust="spacingAndGlyphs" textLength="163" x="565" y="146.7622">setState(car, AVAILABLE)</text><polygon fill="#A80036" points="569,161.8281,559,165.8281,569,169.8281,565,165.8281" style="stroke: #A80036; stroke-width: 1.0;"/><line style="stroke: #A80036; stroke-width: 1.0;" x1="563" x2="744" y1="165.8281" y2="165.8281"/><polygon fill="#A80036" points="319,175.8281,309,179.8281,319,183.8281,315,179.8281" style="stroke: #A80036; stroke-width: 1.0;"/><line style="stroke: #A80036; stroke-width: 1.0;" x1="313" x2="552" y1="179.8281" y2="179.8281"/><polygon fill="#A80036" points="852.5,204.8281,862.5,208.8281,852.5,212.8281,856.5,208.8281" style="stroke: #A80036; stroke-width: 1.0;"/><line style="stroke: #A80036; stroke-width: 1.0;" x1="308" x2="858.5" y1="208.8281" y2="208.8281"/><text fill="#000000" font-family="sans-serif" font-size="13" lengthAdjust="spacingAndGlyphs" textLength="191" x="315" y="203.895">submitInfo(amount, myClient)</text><polygon fill="#A80036" points="319,218.9609,309,222.9609,319,226.9609,315,222.9609" style="stroke: #A80036; stroke-width: 1.0;"/><line style="stroke: #A80036; stroke-width: 1.0;" x1="313" x2="868.5" y1="222.9609" y2="222.9609"/><polygon fill="#A80036" points="75,247.9609,65,251.9609,75,255.9609,71,251.9609" style="stroke: #A80036; stroke-width: 1.0;"/><line style="stroke: #A80036; stroke-width: 1.0;" x1="69" x2="302" y1="251.9609" y2="251.9609"/><text fill="#000000" font-family="sans-serif" font-size="13" lengthAdjust="spacingAndGlyphs" textLength="144" x="81" y="247.0278">notifyAvailableCar(car)</text><line style="stroke: #000000; stroke-width: 1.0; stroke-dasharray: 2.0,2.0;" x1="13" x2="1054" y1="261.0938" y2="261.0938"/><polygon fill="#A80036" points="286,279.0938,296,283.0938,286,287.0938,290,283.0938" style="stroke: #A80036; stroke-width: 1.0;"/><line style="stroke: #A80036; stroke-width: 1.0;" x1="69" x2="292" y1="283.0938" y2="283.0938"/><text fill="#000000" font-family="sans-serif" font-size="13" lengthAdjust="spacingAndGlyphs" textLength="215" x="76" y="278.1606">unlockRequest(car, clientPosition)</text><polygon fill="#A80036" points="536,308.2266,546,312.2266,536,316.2266,540,312.2266" style="stroke: #A80036; stroke-width: 1.0;"/><line style="stroke: #A80036; stroke-width: 1.0;" x1="308" x2="542" y1="312.2266" y2="312.2266"/><text fill="#000000" font-family="sans-serif" font-size="13" lengthAdjust="spacingAndGlyphs" textLength="190" x="315" y="307.2935">carPosition = getPosition(car)</text><polygon fill="#A80036" points="319,322.3594,309,326.3594,319,330.3594,315,326.3594" style="stroke: #A80036; stroke-width: 1.0;"/><line style="stroke: #A80036; stroke-width: 1.0;" x1="313" x2="552" y1="326.3594" y2="326.3594"/><line style="stroke: #A80036; stroke-width: 1.0;" x1="308" x2="350" y1="355.4922" y2="355.4922"/><line style="stroke: #A80036; stroke-width: 1.0;" x1="350" x2="350" y1="355.4922" y2="368.4922"/><line style="stroke: #A80036; stroke-width: 1.0;" x1="309" x2="350" y1="368.4922" y2="368.4922"/><polygon fill="#A80036" points="319,364.4922,309,368.4922,319,372.4922,315,368.4922" style="stroke: #A80036; stroke-width: 1.0;"/><text fill="#000000" font-family="sans-serif" font-size="13" lengthAdjust="spacingAndGlyphs" textLength="226" x="315" y="350.4263">distance(carPosition, clientPosition)</text><polygon fill="#A80036" points="536,393.4922,546,397.4922,536,401.4922,540,397.4922" style="stroke: #A80036; stroke-width: 1.0;"/><line style="stroke: #A80036; stroke-width: 1.0;" x1="308" x2="542" y1="397.4922" y2="397.4922"/><text fill="#000000" font-family="sans-serif" font-size="13" lengthAdjust="spacingAndGlyphs" textLength="123" x="315" y="392.5591">unlockRequest(car)</text><polygon fill="#A80036" points="981,422.625,991,426.625,981,430.625,985,426.625" style="stroke: #A80036; stroke-width: 1.0;"/><line style="stroke: #A80036; stroke-width: 1.0;" x1="558" x2="987" y1="426.625" y2="426.625"/><text fill="#000000" font-family="sans-serif" font-size="13" lengthAdjust="spacingAndGlyphs" textLength="71" x="565" y="421.6919">unlock(car)</text><polygon fill="#A80036" points="569,436.7578,559,440.7578,569,444.7578,565,440.7578" style="stroke: #A80036; stroke-width: 1.0;"/><line style="stroke: #A80036; stroke-width: 1.0;" x1="563" x2="997" y1="440.7578" y2="440.7578"/><polygon fill="#A80036" points="728,465.7578,738,469.7578,728,473.7578,732,469.7578" style="stroke: #A80036; stroke-width: 1.0;"/><line style="stroke: #A80036; stroke-width: 1.0;" x1="558" x2="734" y1="469.7578" y2="469.7578"/><text fill="#000000" font-family="sans-serif" font-size="13" lengthAdjust="spacingAndGlyphs" textLength="155" x="565" y="464.8247">setState(car, REACHED)</text><polygon fill="#A80036" points="564,479.8906,554,483.8906,564,487.8906,560,483.8906" style="stroke: #A80036; stroke-width: 1.0;"/><line style="stroke: #A80036; stroke-width: 1.0;" x1="558" x2="744" y1="483.8906" y2="483.8906"/><rect fill="none" height="460.5938" style="stroke: #000000; stroke-width: 2.0;" width="1260" x="13" y="505.8906"/><polygon fill="#EEEEEE" points="13,505.8906,83,505.8906,83,512.8906,73,522.8906,13,522.8906,13,505.8906" style="stroke: #000000; stroke-width: 2.0;"/><text fill="#000000" font-family="sans-serif" font-size="13" font-weight="bold" lengthAdjust="spacingAndGlyphs" textLength="25" x="28" y="518.9575">opt</text><text fill="#000000" font-family="sans-serif" font-size="11" font-weight="bold" lengthAdjust="spacingAndGlyphs" textLength="145" x="98" y="518.1011">[reservation canceled]</text><polygon fill="#A80036" points="286,540.0234,296,544.0234,286,548.0234,290,544.0234" style="stroke: #A80036; stroke-width: 1.0;"/><line style="stroke: #A80036; stroke-width: 1.0;" x1="64" x2="292" y1="544.0234" y2="544.0234"/><text fill="#000000" font-family="sans-serif" font-size="13" lengthAdjust="spacingAndGlyphs" textLength="210" x="71" y="539.0903">cancelReservation(myClient, car)</text><polygon fill="#A80036" points="1188,569.1563,1198,573.1563,1188,577.1563,1192,573.1563" style="stroke: #A80036; stroke-width: 1.0;"/><line style="stroke: #A80036; stroke-width: 1.0;" x1="308" x2="1194" y1="573.1563" y2="573.1563"/><text fill="#000000" font-family="sans-serif" font-size="13" lengthAdjust="spacingAndGlyphs" textLength="197" x="315" y="568.2231">checkIfReserved(myClient, car)</text><polygon fill="#A80036" points="761,598.2891,751,602.2891,761,606.2891,757,602.2891" style="stroke: #A80036; stroke-width: 1.0;"/><line style="stroke: #A80036; stroke-width: 1.0;" x1="755" x2="1199" y1="602.2891" y2="602.2891"/><text fill="#000000" font-family="sans-serif" font-size="13" lengthAdjust="spacingAndGlyphs" textLength="197" x="767" y="597.356">checkIfReserved(myClient, car)</text><polygon fill="#A80036" points="1188,612.4219,1198,616.4219,1188,620.4219,1192,616.4219" style="stroke: #A80036; stroke-width: 1.0;"/><line style="stroke: #A80036; stroke-width: 1.0;" x1="745" x2="1194" y1="616.4219" y2="616.4219"/><polygon fill="#A80036" points="319,626.4219,309,630.4219,319,634.4219,315,630.4219" style="stroke: #A80036; stroke-width: 1.0;"/><line style="stroke: #A80036; stroke-width: 1.0;" x1="313" x2="1204" y1="630.4219" y2="630.4219"/><polygon fill="#A80036" points="536,655.4219,546,659.4219,536,663.4219,540,659.4219" style="stroke: #A80036; stroke-width: 1.0;"/><line style="stroke: #A80036; stroke-width: 1.0;" x1="308" x2="542" y1="659.4219" y2="659.4219"/><text fill="#000000" font-family="sans-serif" font-size="13" lengthAdjust="spacingAndGlyphs" textLength="122" x="315" y="654.4888">setToAvailable(car)</text><polygon fill="#A80036" points="981,684.5547,991,688.5547,981,692.5547,985,688.5547" style="stroke: #A80036; stroke-width: 1.0;"/><line style="stroke: #A80036; stroke-width: 1.0;" x1="558" x2="987" y1="688.5547" y2="688.5547"/><text fill="#000000" font-family="sans-serif" font-size="13" lengthAdjust="spacingAndGlyphs" textLength="55" x="565" y="683.6216">lock(car)</text><line style="stroke: #A80036; stroke-width: 1.0;" x1="1003" x2="1045" y1="717.8203" y2="717.8203"/><line style="stroke: #A80036; stroke-width: 1.0;" x1="1045" x2="1045" y1="717.8203" y2="730.8203"/><line style="stroke: #A80036; stroke-width: 1.0;" x1="1004" x2="1045" y1="730.8203" y2="730.8203"/><polygon fill="#A80036" points="1014,726.8203,1004,730.8203,1014,734.8203,1010,730.8203" style="stroke: #A80036; stroke-width: 1.0;"/><text fill="#000000" font-family="sans-serif" font-size="13" lengthAdjust="spacingAndGlyphs" textLength="183" x="1010" y="712.7544">waitForPassengerToGetOut()</text><line style="stroke: #A80036; stroke-width: 1.0;" x1="1003" x2="1045" y1="759.9531" y2="759.9531"/><line style="stroke: #A80036; stroke-width: 1.0;" x1="1045" x2="1045" y1="759.9531" y2="772.9531"/><line style="stroke: #A80036; stroke-width: 1.0;" x1="1004" x2="1045" y1="772.9531" y2="772.9531"/><polygon fill="#A80036" points="1014,768.9531,1004,772.9531,1014,776.9531,1010,772.9531" style="stroke: #A80036; stroke-width: 1.0;"/><text fill="#000000" font-family="sans-serif" font-size="13" lengthAdjust="spacingAndGlyphs" textLength="55" x="1010" y="754.8872">lock(car)</text><line style="stroke: #A80036; stroke-width: 1.0;" x1="1003" x2="1045" y1="802.0859" y2="802.0859"/><line style="stroke: #A80036; stroke-width: 1.0;" x1="1045" x2="1045" y1="802.0859" y2="815.0859"/><line style="stroke: #A80036; stroke-width: 1.0;" x1="1004" x2="1045" y1="815.0859" y2="815.0859"/><polygon fill="#A80036" points="1014,811.0859,1004,815.0859,1014,819.0859,1010,815.0859" style="stroke: #A80036; stroke-width: 1.0;"/><text fill="#000000" font-family="sans-serif" font-size="13" lengthAdjust="spacingAndGlyphs" textLength="102" x="1010" y="797.02">setToAvailable()</text><polygon fill="#A80036" points="569,825.0859,559,829.0859,569,833.0859,565,829.0859" style="stroke: #A80036; stroke-width: 1.0;"/><line style="stroke: #A80036; stroke-width: 1.0;" x1="563" x2="997" y1="829.0859" y2="829.0859"/><polygon fill="#A80036" points="728,854.0859,738,858.0859,728,862.0859,732,858.0859" style="stroke: #A80036; stroke-width: 1.0;"/><line style="stroke: #A80036; stroke-width: 1.0;" x1="558" x2="734" y1="858.0859" y2="858.0859"/><text fill="#000000" font-family="sans-serif" font-size="13" lengthAdjust="spacingAndGlyphs" textLength="163" x="565" y="853.1528">setState(car, AVAILABLE)</text><polygon fill="#A80036" points="569,868.2188,559,872.2188,569,876.2188,565,872.2188" style="stroke: #A80036; stroke-width: 1.0;"/><line style="stroke: #A80036; stroke-width: 1.0;" x1="563" x2="744" y1="872.2188" y2="872.2188"/><polygon fill="#A80036" points="319,882.2188,309,886.2188,319,890.2188,315,886.2188" style="stroke: #A80036; stroke-width: 1.0;"/><line style="stroke: #A80036; stroke-width: 1.0;" x1="313" x2="552" y1="886.2188" y2="886.2188"/><polygon fill="#A80036" points="852.5,911.2188,862.5,915.2188,852.5,919.2188,856.5,915.2188" style="stroke: #A80036; stroke-width: 1.0;"/><line style="stroke: #A80036; stroke-width: 1.0;" x1="308" x2="858.5" y1="915.2188" y2="915.2188"/><text fill="#000000" font-family="sans-serif" font-size="13" lengthAdjust="spacingAndGlyphs" textLength="133" x="315" y="910.2856">submitFee(myClient)</text><polygon fill="#A80036" points="319,925.3516,309,929.3516,319,933.3516,315,929.3516" style="stroke: #A80036; stroke-width: 1.0;"/><line style="stroke: #A80036; stroke-width: 1.0;" x1="313" x2="868.5" y1="929.3516" y2="929.3516"/><polygon fill="#A80036" points="75,954.3516,65,958.3516,75,962.3516,71,958.3516" style="stroke: #A80036; stroke-width: 1.0;"/><line style="stroke: #A80036; stroke-width: 1.0;" x1="69" x2="297" y1="958.3516" y2="958.3516"/><text fill="#000000" font-family="sans-serif" font-size="13" lengthAdjust="spacingAndGlyphs" textLength="115" x="81" y="953.4185">notifyFreeCar(car)</text></g></svg>